<svg xmlns="http://www.w3.org/2000/svg" xmlns:xlink="http://www.w3.org/1999/xlink" width="320" zoomAndPan="magnify" viewBox="0 0 240 239.999995" height="320" preserveAspectRatio="xMidYMid meet" version="1.0"><defs><clipPath id="42a65df154"><path d="M 120 0 C 53.726562 0 0 53.726562 0 120 C 0 186.273438 53.726562 240 120 240 C 186.273438 240 240 186.273438 240 120 C 240 53.726562 186.273438 0 120 0 Z M 120 0 " clip-rule="nonzero"/></clipPath><clipPath id="7ba2f08aa5"><path d="M 0 0 L 240 0 L 240 240 L 0 240 Z M 0 0 " clip-rule="nonzero"/></clipPath><clipPath id="0fcdfcb312"><path d="M 120 0 C 53.726562 0 0 53.726562 0 120 C 0 186.273438 53.726562 240 120 240 C 186.273438 240 240 186.273438 240 120 C 240 53.726562 186.273438 0 120 0 Z M 120 0 " clip-rule="nonzero"/></clipPath><clipPath id="a6f263ee26"><rect x="0" width="240" y="0" height="240"/></clipPath><clipPath id="a8aeccaa7b"><path d="M 8.558594 122.117188 L 40.742188 122.117188 L 40.742188 190.816406 L 8.558594 190.816406 Z M 8.558594 122.117188 " clip-rule="nonzero"/></clipPath><clipPath id="b0c304d401"><path d="M 9.09375 49.164062 L 231.445312 49.164062 L 231.445312 190.242188 L 9.09375 190.242188 Z M 9.09375 49.164062 " clip-rule="nonzero"/></clipPath></defs><g clip-path="url(#42a65df154)"><g transform="matrix(1, 0, 0, 1, 0, 0)"><g clip-path="url(#a6f263ee26)"><g clip-path="url(#7ba2f08aa5)"><g clip-path="url(#0fcdfcb312)"><rect x="-52.8" width="345.6" fill="#f2f2f2" height="345.599992" y="-52.799999" fill-opacity="1"/></g></g></g></g></g><g clip-path="url(#a8aeccaa7b)"><path fill="#3270a6" d="M 38.875 173.871094 C 40.855469 167.625 40.664062 161.429688 38.367188 155.277344 C 36.007812 148.960938 31.832031 143.5625 27.28125 138.675781 C 22.167969 133.191406 16.710938 128.011719 11.402344 122.726562 C 10.71875 122.046875 9.746094 122.550781 9.554688 123.246094 C 9.164062 123.355469 8.835938 123.660156 8.808594 124.1875 C 8.410156 131.414062 8.273438 139 10.085938 146.148438 C 10.996094 149.734375 12.367188 153.566406 14.539062 156.597656 C 16.601562 159.476562 19.472656 161.761719 21.773438 164.445312 C 23.011719 165.882812 24.15625 167.480469 24.570312 169.328125 C 25.054688 171.507812 24.476562 173.757812 24.207031 175.972656 C 23.519531 181.625 27.492188 184.609375 31.03125 188.324219 C 31.996094 189.335938 33.191406 190.164062 34.582031 190.738281 C 35.128906 190.964844 35.605469 190.65625 35.828125 190.210938 C 35.90625 190.15625 35.980469 190.085938 36.050781 190.003906 C 36.601562 189.324219 36.890625 188.601562 37.027344 187.847656 C 37.714844 187.65625 38.035156 186.597656 37.46875 186.105469 C 37.34375 185.992188 37.21875 185.875 37.09375 185.761719 C 37.054688 185.171875 36.984375 184.574219 36.929688 183.96875 C 36.605469 180.40625 37.816406 177.203125 38.875 173.871094 " fill-opacity="1" fill-rule="nonzero"/></g><g clip-path="url(#b0c304d401)"><path fill="#a0bed9" d="M 230.582031 105.234375 C 230.539062 105.113281 230.480469 104.992188 230.394531 104.878906 C 226.636719 99.964844 227.140625 93.078125 223.152344 88.261719 C 221.398438 86.148438 218.964844 84.8125 216.917969 83.023438 C 215.871094 82.109375 214.859375 81.03125 214.445312 79.667969 C 213.9375 77.988281 214.472656 76.152344 214.609375 74.453125 C 215.441406 64.296875 209.566406 54.464844 200.597656 49.910156 C 200.28125 49.1875 199.074219 48.796875 198.394531 49.636719 L 180.253906 72.035156 C 177.179688 75.832031 174.109375 79.625 171.035156 83.421875 C 169.25 85.628906 167.296875 87.816406 165.789062 90.253906 C 160.351562 81.714844 152.324219 74.675781 143.40625 70.074219 C 137.042969 66.792969 130.132812 65.472656 123.195312 65.734375 C 103.832031 66.472656 84.296875 79.539062 76.140625 96.648438 C 71.886719 105.570312 71.066406 119.027344 73.769531 130.242188 C 54.132812 123.554688 33.285156 120.800781 12.566406 122.234375 C 12.042969 122.269531 11.667969 122.550781 11.445312 122.914062 C 10.667969 122.210938 9.15625 122.441406 9.214844 123.742188 C 9.507812 130.007812 12.308594 135.867188 17.3125 139.734375 C 21.898438 143.277344 30.230469 145.148438 31.800781 151.488281 C 32.640625 154.878906 31.433594 158.421875 31.023438 161.785156 C 30.644531 164.921875 31.078125 167.746094 32.398438 170.613281 C 34.050781 174.210938 36.179688 177.128906 34.929688 181.242188 C 34.085938 184.027344 32.878906 186.507812 34.320312 189.308594 C 34.960938 190.550781 36.632812 189.96875 36.832031 188.886719 C 36.835938 188.882812 36.84375 188.878906 36.847656 188.875 C 47.410156 181.714844 56.691406 172.484375 65.414062 163.21875 C 71.378906 156.882812 75.898438 149.789062 78.40625 141.734375 C 78.65625 142.128906 78.914062 142.515625 79.179688 142.890625 C 83.765625 149.316406 90.652344 153.8125 97.949219 156.832031 C 114.003906 163.472656 133.125 163.21875 148.277344 154.714844 C 163.429688 146.207031 173.832031 129.152344 172.929688 111.800781 C 172.816406 109.59375 172.519531 107.425781 172.0625 105.300781 C 173.074219 105.53125 174.078125 105.71875 175.039062 105.910156 C 183.4375 107.605469 191.960938 108.65625 200.519531 109.023438 C 210.546875 109.445312 220.589844 108.917969 230.527344 107.527344 C 231.84375 107.34375 231.636719 105.585938 230.582031 105.234375 " fill-opacity="1" fill-rule="nonzero"/></g><path fill="#3270a6" d="M 157.125 124.519531 C 156.882812 123.78125 158.046875 123.464844 158.289062 124.199219 C 158.898438 126.035156 158.304688 128.09375 156.785156 129.296875 C 156.183594 129.777344 155.324219 128.929688 155.933594 128.445312 C 157.140625 127.484375 157.613281 125.988281 157.125 124.519531 Z M 151.894531 130.71875 C 152.480469 128.476562 153.070312 126.230469 153.65625 123.984375 C 153.851562 123.234375 155.015625 123.554688 154.820312 124.304688 C 154.234375 126.550781 153.644531 128.796875 153.058594 131.042969 C 152.863281 131.792969 151.699219 131.472656 151.894531 130.71875 Z M 148.5625 134.269531 C 148.570312 134.214844 148.582031 134.167969 148.589844 134.113281 C 148.585938 134.113281 148.585938 134.113281 148.582031 134.109375 C 148.589844 134.09375 148.59375 134.074219 148.597656 134.058594 C 148.644531 133.753906 148.710938 133.484375 148.808594 133.226562 C 149.664062 129.808594 150.050781 126.355469 149.964844 122.820312 C 149.949219 122.042969 151.15625 122.042969 151.171875 122.820312 C 151.25 126.070312 150.9375 129.257812 150.242188 132.40625 C 150.386719 132.570312 150.4375 132.808594 150.269531 133.054688 C 150.121094 133.417969 149.96875 133.78125 149.820312 134.144531 C 149.792969 134.242188 149.773438 134.335938 149.75 134.433594 C 149.574219 135.070312 148.476562 134.957031 148.5625 134.269531 Z M 80.339844 94.660156 C 79.914062 94.007812 80.960938 93.40625 81.382812 94.050781 C 82.757812 96.148438 83.65625 98.460938 84.046875 100.941406 C 84.167969 101.699219 83.003906 102.023438 82.882812 101.261719 C 82.507812 98.871094 81.667969 96.683594 80.339844 94.660156 Z M 79.90625 98.046875 C 79.757812 97.289062 80.917969 96.964844 81.070312 97.726562 C 81.4375 99.597656 82.207031 101.304688 83.414062 102.789062 C 83.898438 103.386719 83.050781 104.246094 82.558594 103.644531 C 81.222656 101.996094 80.316406 100.132812 79.90625 98.046875 Z M 77.945312 101.285156 C 77.363281 100.765625 78.21875 99.914062 78.796875 100.429688 C 80.09375 101.585938 81.128906 102.976562 81.863281 104.546875 C 82.191406 105.246094 81.148438 105.859375 80.820312 105.15625 C 80.125 103.667969 79.167969 102.378906 77.945312 101.285156 Z M 72.75 143.492188 C 71.605469 144.808594 70.421875 146.089844 69.125 147.257812 C 68.363281 147.949219 64.566406 151.601562 64.734375 149.085938 C 64.816406 147.863281 67.09375 145.984375 67.886719 145.140625 C 69.230469 143.703125 70.664062 142.347656 72.171875 141.085938 C 72.429688 140.867188 72.695312 140.652344 72.964844 140.441406 C 73.222656 141.070312 73.480469 141.691406 73.746094 142.316406 C 73.414062 142.707031 73.089844 143.105469 72.75 143.492188 Z M 68.695312 135.058594 C 65.144531 135.425781 61.109375 136.085938 57.460938 135.503906 C 60.664062 134.066406 65.519531 134.144531 68.519531 134.105469 C 69.222656 134.097656 69.925781 134.109375 70.628906 134.128906 C 70.703125 134.355469 70.78125 134.582031 70.859375 134.808594 C 70.136719 134.894531 69.414062 134.980469 68.695312 135.058594 Z M 89.609375 146.070312 C 85.472656 144.710938 82.089844 142.121094 78.867188 139.304688 C 78.773438 139.085938 78.683594 138.867188 78.59375 138.644531 C 81.210938 140.253906 84.039062 141.464844 87.070312 142.242188 C 87.824219 142.433594 88.144531 141.273438 87.390625 141.078125 C 83.914062 140.1875 80.71875 138.730469 77.8125 136.710938 C 77.097656 134.875 76.4375 133.015625 75.839844 131.132812 C 77.929688 129.488281 79.253906 127.289062 79.707031 124.582031 C 79.835938 123.820312 78.671875 123.496094 78.546875 124.261719 C 78.160156 126.550781 77.125 128.441406 75.445312 129.886719 C 75.386719 129.695312 75.332031 129.5 75.273438 129.308594 C 75.371094 125.714844 75.902344 122.1875 76.882812 118.707031 C 77.09375 117.957031 75.929688 117.636719 75.722656 118.386719 C 74.960938 121.078125 74.464844 123.792969 74.222656 126.542969 C 72.453125 124.394531 68.15625 125.757812 69.046875 128.964844 C 69.363281 130.113281 69.707031 131.25 70.0625 132.386719 C 68.882812 132.367188 67.703125 132.375 66.515625 132.441406 C 62.746094 132.644531 57.636719 132.65625 54.625 135.238281 C 54.128906 135.664062 54.347656 136.511719 54.953125 136.703125 C 58.78125 137.910156 62.941406 137.3125 66.867188 136.964844 C 68.398438 136.828125 69.921875 136.664062 71.441406 136.476562 C 71.722656 137.246094 72.007812 138.011719 72.304688 138.777344 C 70.832031 139.921875 69.414062 141.140625 68.078125 142.457031 C 66.566406 143.941406 60.769531 149.058594 62.742188 151.800781 C 64.609375 154.394531 69.949219 149.335938 74.527344 144.074219 C 74.886719 144.867188 75.253906 145.660156 75.636719 146.445312 C 77.289062 149.859375 82.511719 147.101562 80.851562 143.683594 C 80.550781 143.0625 80.253906 142.433594 79.96875 141.808594 C 82.777344 144.089844 85.777344 146.082031 89.289062 147.234375 C 90.03125 147.476562 90.347656 146.3125 89.609375 146.070312 Z M 219.722656 105.613281 C 217.304688 104.105469 214.882812 102.59375 212.464844 101.082031 C 211.804688 100.671875 212.410156 99.628906 213.074219 100.039062 C 215.492188 101.550781 217.910156 103.0625 220.332031 104.574219 C 220.988281 104.984375 220.382812 106.027344 219.722656 105.613281 Z M 217.160156 105.835938 C 217.753906 106.335938 216.894531 107.1875 216.304688 106.6875 C 213.90625 104.652344 211.285156 102.964844 208.449219 101.601562 C 207.75 101.261719 208.363281 100.222656 209.058594 100.554688 C 211.984375 101.96875 214.679688 103.734375 217.160156 105.835938 Z M 209.785156 105.101562 C 208.347656 104.222656 206.910156 103.335938 205.472656 102.453125 C 204.808594 102.046875 205.417969 101.003906 206.082031 101.414062 C 207.519531 102.296875 208.957031 103.175781 210.394531 104.0625 C 211.054688 104.46875 210.445312 105.511719 209.785156 105.101562 Z M 205.773438 104.8125 C 204.238281 104.035156 202.703125 103.261719 201.167969 102.484375 C 200.472656 102.132812 201.085938 101.09375 201.777344 101.441406 C 203.3125 102.21875 204.847656 102.992188 206.378906 103.769531 C 207.074219 104.121094 206.464844 105.160156 205.773438 104.8125 Z M 201.699219 76.957031 C 201.796875 72.601562 201.535156 68.289062 200.882812 63.980469 C 200.769531 63.222656 201.933594 62.894531 202.050781 63.660156 C 202.714844 68.074219 203.007812 72.492188 202.902344 76.957031 C 202.886719 77.734375 201.679688 77.734375 201.699219 76.957031 Z M 198.496094 66.09375 C 199.414062 70.027344 200.007812 73.996094 200.277344 78.027344 C 200.332031 78.804688 199.125 78.796875 199.070312 78.027344 C 198.804688 74.105469 198.226562 70.242188 197.332031 66.414062 C 197.15625 65.65625 198.320312 65.335938 198.496094 66.09375 Z M 196.140625 68.757812 C 196.730469 71.914062 197.113281 75.089844 197.292969 78.296875 C 197.339844 79.074219 196.128906 79.070312 196.089844 78.296875 C 195.914062 75.199219 195.546875 72.128906 194.976562 69.078125 C 194.835938 68.320312 196 67.996094 196.140625 68.757812 Z M 194.117188 77.855469 C 194.265625 78.613281 193.101562 78.9375 192.957031 78.175781 C 192.628906 76.488281 192.304688 74.800781 191.984375 73.109375 C 191.835938 72.351562 193 72.03125 193.144531 72.789062 C 193.472656 74.480469 193.792969 76.167969 194.117188 77.855469 Z M 189.050781 75.804688 C 188.765625 75.082031 189.933594 74.769531 190.210938 75.484375 C 190.660156 76.617188 191 77.773438 191.246094 78.964844 C 191.402344 79.722656 190.238281 80.046875 190.082031 79.285156 C 189.835938 78.09375 189.492188 76.9375 189.050781 75.804688 Z M 50.5 160.863281 C 50.800781 161.570312 49.761719 162.1875 49.460938 161.472656 C 49.007812 160.402344 48.554688 159.332031 48.101562 158.261719 C 47.800781 157.554688 48.84375 156.9375 49.144531 157.652344 C 49.59375 158.722656 50.046875 159.792969 50.5 160.863281 Z M 47.753906 162.574219 C 48.003906 163.3125 46.835938 163.625 46.589844 162.894531 C 46.1875 161.710938 45.597656 160.628906 44.84375 159.632812 C 44.375 159.015625 45.421875 158.414062 45.886719 159.027344 C 46.703125 160.101562 47.316406 161.289062 47.753906 162.574219 Z M 44.597656 163.816406 C 44.9375 164.511719 43.894531 165.121094 43.554688 164.425781 C 42.90625 163.09375 42.253906 161.765625 41.601562 160.4375 C 41.261719 159.742188 42.304688 159.132812 42.644531 159.828125 C 43.292969 161.15625 43.945312 162.488281 44.597656 163.816406 Z M 46.933594 137.640625 C 45.242188 136.738281 43.546875 135.835938 41.851562 134.933594 C 41.164062 134.570312 41.777344 133.527344 42.460938 133.890625 C 44.15625 134.792969 45.847656 135.699219 47.542969 136.601562 C 48.230469 136.964844 47.621094 138.007812 46.933594 137.640625 Z M 35.753906 133.902344 C 38.539062 135.332031 41.203125 136.957031 43.746094 138.78125 C 44.375 139.230469 43.773438 140.273438 43.140625 139.820312 C 40.589844 138 37.929688 136.371094 35.144531 134.945312 C 34.453125 134.589844 35.0625 133.546875 35.753906 133.902344 Z M 40.878906 141.75 C 37.757812 139.613281 34.507812 137.703125 31.121094 136.015625 C 30.425781 135.671875 31.035156 134.628906 31.730469 134.976562 C 35.117188 136.660156 38.367188 138.570312 41.488281 140.707031 C 42.125 141.144531 41.519531 142.191406 40.878906 141.75 Z M 28.828125 135.957031 C 32.21875 137.839844 35.613281 139.722656 39.007812 141.605469 C 39.691406 141.980469 39.082031 143.023438 38.402344 142.644531 C 35.003906 140.765625 31.609375 138.882812 28.214844 137 C 27.539062 136.621094 28.148438 135.582031 28.828125 135.957031 Z M 226.722656 108.410156 C 222.800781 104.65625 220.75 100.101562 219.886719 94.796875 C 219.351562 91.515625 218.085938 89.566406 215.28125 87.816406 C 213.625 86.785156 211.828125 85.886719 210.449219 84.480469 C 208.90625 82.90625 208.378906 81.007812 208.175781 78.851562 C 207.867188 75.53125 207.660156 72.257812 206.839844 69.007812 C 205.214844 62.578125 201.769531 56.699219 196.121094 53.050781 C 195.25 52.492188 196.058594 51.097656 196.933594 51.660156 C 201.484375 54.601562 204.808594 58.890625 206.851562 63.890625 C 208.03125 66.765625 208.78125 69.789062 209.226562 72.859375 C 209.675781 75.980469 209.144531 80.050781 211.035156 82.683594 C 213.617188 86.28125 218.882812 86.746094 220.675781 91.171875 C 221.714844 93.738281 221.621094 96.640625 222.554688 99.269531 C 223.644531 102.347656 225.511719 105.023438 227.863281 107.273438 C 228.613281 107.992188 227.472656 109.125 226.722656 108.410156 Z M 40.71875 186.472656 C 41.347656 187.296875 39.949219 188.097656 39.332031 187.28125 C 37.378906 184.71875 37.820312 181.683594 38.441406 178.722656 C 38.976562 176.167969 39.304688 173.824219 38.425781 171.300781 C 37.789062 169.46875 36.4375 168.121094 35.734375 166.339844 C 33.214844 159.988281 38.949219 152.308594 34.480469 146.296875 C 32.398438 143.5 28.730469 141.851562 25.917969 139.875 C 23.484375 138.160156 20.917969 136.59375 18.933594 134.332031 C 16.132812 131.148438 15.308594 126.535156 14.230469 122.574219 C 13.960938 121.570312 15.511719 121.144531 15.785156 122.144531 C 16.988281 126.582031 17.859375 131.222656 21.324219 134.476562 C 24.019531 137.007812 27.40625 139.050781 30.53125 141.027344 C 32.746094 142.433594 35.066406 143.925781 36.398438 146.265625 C 37.71875 148.582031 37.808594 151.5 37.722656 154.09375 C 37.609375 157.65625 36.027344 161.507812 36.980469 165.007812 C 37.480469 166.835938 38.867188 168.210938 39.609375 169.929688 C 40.253906 171.410156 40.613281 173.046875 40.625 174.664062 C 40.652344 178.609375 38.023438 182.921875 40.71875 186.472656 Z M 172.125 118.144531 C 175.144531 120.949219 172.882812 127.238281 169.847656 124.417969 C 142.601562 99.089844 139.070312 96.324219 113.59375 69.273438 C 110.796875 66.304688 117.253906 63.820312 120.082031 66.824219 C 121.726562 68.566406 123.261719 70.195312 124.703125 71.722656 C 125.722656 70.832031 126.785156 69.984375 127.890625 69.195312 C 128.523438 68.746094 129.128906 69.789062 128.5 70.238281 C 127.464844 70.972656 126.480469 71.765625 125.527344 72.597656 C 125.800781 72.890625 126.074219 73.175781 126.339844 73.457031 C 128.011719 71.898438 129.847656 70.539062 131.851562 69.417969 C 132.527344 69.039062 133.136719 70.082031 132.460938 70.460938 C 130.535156 71.539062 128.777344 72.835938 127.167969 74.335938 C 145.710938 93.929688 147.679688 95.421875 172.125 118.144531 Z M 153.949219 149.980469 C 149.71875 146.230469 145.917969 142.773438 142.410156 139.515625 C 141.984375 139.847656 141.207031 139.53125 141.441406 138.925781 C 141.472656 138.847656 141.496094 138.773438 141.527344 138.695312 C 121.316406 119.84375 111.101562 107.671875 87.648438 84.535156 C 84.71875 81.644531 89.019531 76.8125 91.964844 79.71875 C 114.359375 101.808594 124.6875 113.90625 143.164062 131.359375 C 143.363281 129.640625 143.484375 127.910156 143.617188 126.175781 C 143.679688 125.402344 144.886719 125.398438 144.824219 126.175781 C 144.667969 128.253906 144.523438 130.332031 144.253906 132.386719 C 144.785156 132.886719 145.316406 133.386719 145.863281 133.894531 C 146.417969 130.59375 146.710938 127.265625 146.738281 123.890625 C 146.746094 123.113281 147.953125 123.117188 147.945312 123.890625 C 147.914062 127.597656 147.566406 131.246094 146.914062 134.871094 C 150.367188 138.078125 154.109375 141.476562 158.265625 145.164062 C 161.359375 147.910156 157.042969 152.730469 153.949219 149.980469 Z M 129.828125 159.3125 C 132.714844 162.222656 124.675781 163.253906 121.765625 160.316406 C 101.058594 139.40625 95.222656 132.652344 73.457031 112.808594 C 70.40625 110.03125 71.542969 102.648438 74.605469 105.4375 C 96.371094 125.28125 109.121094 138.398438 129.828125 159.3125 Z M 175.328125 102.539062 C 175.214844 102.53125 175.101562 102.519531 174.988281 102.511719 C 174.679688 101.726562 174.410156 100.925781 174.152344 100.117188 C 174.765625 100.089844 175.378906 100.070312 175.992188 100.0625 C 178.4375 100.023438 180.890625 100.109375 183.328125 100.316406 C 184.589844 100.425781 189.425781 100.433594 189.710938 101.523438 C 190.144531 103.199219 177.046875 102.679688 175.328125 102.539062 Z M 181.773438 80.292969 C 180.75 81.953125 177.507812 85.03125 176.960938 85.53125 C 175.433594 86.9375 173.808594 88.226562 172.160156 89.480469 C 171.597656 89.910156 171.035156 90.328125 170.46875 90.75 C 170.414062 90.648438 170.363281 90.542969 170.3125 90.445312 C 173.683594 86.574219 177.382812 83.039062 181.773438 80.292969 Z M 187.507812 89.351562 C 185.875 90.308594 183.425781 91.261719 182.714844 91.613281 C 180.5625 92.675781 178.378906 93.683594 176.171875 94.632812 C 175.058594 95.113281 173.941406 95.570312 172.816406 96.015625 C 172.804688 95.992188 172.796875 95.964844 172.789062 95.9375 C 172.589844 95.40625 172.371094 94.886719 172.15625 94.367188 C 177.09375 92.210938 182.21875 90.527344 187.507812 89.351562 Z M 189.65625 99.390625 C 186.554688 98.855469 183.421875 98.515625 180.277344 98.382812 C 178.054688 98.289062 175.835938 98.304688 173.621094 98.417969 C 173.539062 98.164062 173.457031 97.90625 173.375 97.652344 C 175.269531 96.902344 177.152344 96.113281 179.015625 95.277344 C 181.878906 93.988281 184.703125 92.601562 187.472656 91.117188 C 188.863281 90.375 190.683594 89.789062 190.777344 88.011719 C 190.804688 87.433594 190.269531 87.015625 189.71875 87.121094 C 183.40625 88.316406 177.292969 90.210938 171.449219 92.757812 C 171.386719 92.617188 171.324219 92.480469 171.257812 92.339844 C 173.144531 90.933594 175.023438 89.511719 176.820312 87.976562 C 178.542969 86.503906 185.667969 80.839844 183.292969 78.15625 C 183.046875 77.875 182.574219 77.789062 182.246094 77.976562 C 177.28125 80.820312 173.152344 84.621094 169.429688 88.835938 C 169.234375 88.496094 169.046875 88.152344 168.84375 87.816406 C 167.082031 84.886719 162.625 86.847656 163.253906 89.667969 C 161.214844 87.546875 158.757812 85.84375 155.976562 84.667969 C 155.273438 84.371094 154.65625 85.410156 155.367188 85.710938 C 159.417969 87.425781 162.734375 90.238281 165.039062 93.917969 C 162.273438 91.824219 159.183594 90.242188 155.8125 89.210938 C 155.070312 88.980469 154.75 90.144531 155.492188 90.375 C 159.851562 91.710938 163.695312 93.980469 166.96875 97.148438 C 167.203125 97.730469 167.429688 98.3125 167.632812 98.90625 C 167.707031 99.125 167.78125 99.34375 167.851562 99.5625 C 167.3125 99.742188 166.789062 100.09375 166.363281 100.371094 C 164.941406 101.308594 163.644531 102.40625 162.453125 103.621094 C 161.910156 104.175781 162.761719 105.027344 163.308594 104.472656 C 163.746094 104.023438 166.96875 100.925781 168.277344 100.882812 C 168.410156 101.3125 168.542969 101.738281 168.679688 102.164062 C 168.484375 102.796875 168.136719 103.496094 167.992188 103.820312 C 167.59375 104.710938 167.074219 105.523438 166.476562 106.292969 C 166.003906 106.90625 167.050781 107.507812 167.523438 106.902344 C 168.230469 105.980469 168.816406 104.980469 169.253906 103.910156 C 169.636719 105.011719 170.070312 106.101562 170.617188 107.152344 C 172.367188 110.519531 177.589844 107.769531 175.832031 104.390625 C 175.828125 104.382812 175.828125 104.378906 175.824219 104.375 C 177.46875 104.480469 179.117188 104.558594 180.761719 104.589844 C 183.753906 104.644531 186.78125 104.46875 189.695312 103.746094 C 190.871094 103.457031 192.933594 103.105469 192.917969 101.511719 C 192.902344 99.875 190.867188 99.597656 189.65625 99.390625 " fill-opacity="1" fill-rule="nonzero"/></svg>