<svg xmlns="http://www.w3.org/2000/svg" xmlns:xlink="http://www.w3.org/1999/xlink" width="700" zoomAndPan="magnify" viewBox="0 0 525 299.999988" height="400" preserveAspectRatio="xMidYMid meet" version="1.0"><defs><filter x="0%" y="0%" width="100%" height="100%" id="46f4dea6d2"><feColorMatrix values="0 0 0 0 1 0 0 0 0 1 0 0 0 0 1 0 0 0 1 0" color-interpolation-filters="sRGB"/></filter><g/><mask id="b1c0787fc5"><g filter="url(#46f4dea6d2)"><rect x="-52.5" width="630" fill="#000000" y="-29.999999" height="359.999986" fill-opacity="0.25"/></g></mask><clipPath id="925446e5b8"><path d="M 0.5625 1 L 214.878906 1 L 214.878906 199 L 0.5625 199 Z M 0.5625 1 " clip-rule="nonzero"/></clipPath><clipPath id="bcbb3e2bf5"><path d="M 88 21 L 214.878906 21 L 214.878906 162 L 88 162 Z M 88 21 " clip-rule="nonzero"/></clipPath><clipPath id="bc012101b7"><path d="M 69 116 L 136 116 L 136 198 L 69 198 Z M 69 116 " clip-rule="nonzero"/></clipPath><clipPath id="6562e3b348"><path d="M 1 0 L 110 0 L 110 135 L 1 135 Z M 1 0 " clip-rule="nonzero"/></clipPath><clipPath id="427eb8dc97"><rect x="0" width="215" y="0" height="198"/></clipPath><clipPath id="81fba79ad8"><rect x="0" width="215" y="0" height="200"/></clipPath><clipPath id="60919b6a54"><path d="M 30.238281 121.363281 L 70 121.363281 L 70 207.402344 L 30.238281 207.402344 Z M 30.238281 121.363281 " clip-rule="nonzero"/></clipPath><clipPath id="7df1fb9428"><path d="M 31 30 L 309.378906 30 L 309.378906 206.683594 L 31 206.683594 Z M 31 30 " clip-rule="nonzero"/></clipPath></defs><g mask="url(#b1c0787fc5)"><g transform="matrix(1, 0, 0, 1, 280, 29)"><g clip-path="url(#81fba79ad8)"><g clip-path="url(#925446e5b8)"><g transform="matrix(1, 0, 0, 1, 0, 1)"><g clip-path="url(#427eb8dc97)"><g clip-path="url(#bcbb3e2bf5)"><path fill="#a0bed9" d="M 167.371094 108.082031 C 173.992188 97.335938 186.925781 91.652344 212.007812 90.289062 C 213.210938 90.265625 214.261719 89.390625 214.46875 88.160156 C 214.699219 86.773438 213.761719 85.457031 212.375 85.226562 C 190.429688 81.503906 176.816406 78.828125 167.539062 70.910156 C 158.238281 62.96875 152.777344 49.382812 146.988281 23.710938 L 146.988281 23.714844 C 146.730469 22.566406 145.699219 21.714844 144.476562 21.726562 C 143.070312 21.746094 141.945312 22.898438 141.960938 24.300781 C 142.675781 83.925781 124.375 86.136719 93.484375 89.871094 L 90.304688 90.257812 L 90.304688 90.265625 C 89.019531 90.417969 88.039062 91.53125 88.070312 92.847656 C 88.105469 94.253906 89.269531 95.367188 90.671875 95.332031 C 112.570312 94.757812 125.699219 98.371094 134.636719 108.046875 C 143.75 117.917969 148.90625 134.308594 154.675781 159.046875 L 154.679688 159.042969 C 154.9375 160.160156 155.933594 161 157.128906 161.011719 C 158.53125 161.03125 159.683594 159.902344 159.699219 158.496094 C 159.992188 135.691406 160.621094 119.039062 167.371094 108.082031 M 194.460938 87.128906 C 178.34375 90.101562 168.796875 96.074219 163.042969 105.410156 C 157.691406 114.09375 155.835938 125.472656 155.101562 139.960938 C 150.625 124.050781 145.742188 112.5625 138.386719 104.597656 C 132.273438 97.980469 124.605469 93.878906 114.253906 91.816406 C 132.695312 87.496094 144.191406 77.597656 146.59375 42.707031 C 151.285156 58.476562 156.519531 68.199219 164.226562 74.777344 C 171.671875 81.136719 181.15625 84.363281 194.460938 87.128906 Z M 194.460938 87.128906 " fill-opacity="1" fill-rule="nonzero"/></g><g clip-path="url(#bc012101b7)"><path fill="#a0bed9" d="M 133.664062 152.273438 L 107.34375 148.648438 L 100.144531 118.042969 L 100.136719 118.046875 C 99.875 116.910156 98.855469 116.070312 97.640625 116.082031 C 96.238281 116.089844 95.109375 117.238281 95.117188 118.640625 L 95.457031 149.886719 L 71.816406 153.230469 C 70.667969 153.332031 69.695312 154.210938 69.523438 155.402344 C 69.316406 156.796875 70.28125 158.089844 71.675781 158.292969 L 96.472656 161.925781 L 103.753906 196.03125 L 103.761719 196.03125 C 104.003906 197.183594 105.027344 198.042969 106.25 198.042969 C 107.652344 198.042969 108.792969 196.90625 108.792969 195.503906 L 108.738281 161.40625 L 133.714844 157.308594 C 134.800781 157.140625 135.691406 156.277344 135.847656 155.132812 C 136.035156 153.742188 135.058594 152.457031 133.664062 152.273438 M 105.0625 153.472656 L 116.253906 155.015625 L 105.78125 156.730469 C 104.488281 156.945312 103.582031 158.09375 103.648438 159.375 L 103.667969 171.214844 L 101.085938 159.128906 C 100.859375 158.058594 99.988281 157.289062 98.960938 157.140625 L 89.9375 155.816406 L 98.375 154.625 C 99.710938 154.4375 100.65625 153.253906 100.566406 151.929688 L 100.457031 141.640625 L 102.777344 151.507812 C 103.035156 152.617188 103.984375 153.390625 105.0625 153.472656 Z M 105.0625 153.472656 " fill-opacity="1" fill-rule="nonzero"/></g><g clip-path="url(#6562e3b348)"><path fill="#a0bed9" d="M 107.277344 61.027344 L 61.683594 54.75 L 49.265625 1.960938 L 49.257812 1.964844 C 48.996094 0.828125 47.972656 -0.015625 46.761719 -0.00390625 C 45.359375 0.0078125 44.226562 1.152344 44.238281 2.558594 L 44.832031 56.796875 L 3.34375 62.65625 C 2.195312 62.761719 1.226562 63.640625 1.050781 64.828125 C 0.847656 66.222656 1.8125 67.515625 3.203125 67.71875 L 46.234375 74.023438 L 58.773438 132.746094 L 58.777344 132.742188 C 59.023438 133.894531 60.042969 134.761719 61.265625 134.761719 C 62.671875 134.761719 63.808594 133.621094 63.808594 132.214844 L 63.71875 73.21875 L 107.328125 66.066406 C 108.414062 65.898438 109.304688 65.035156 109.460938 63.890625 C 109.648438 62.496094 108.671875 61.214844 107.277344 61.027344 M 59.40625 59.574219 L 89.867188 63.773438 L 60.761719 68.546875 C 59.46875 68.753906 58.5625 69.90625 58.628906 71.1875 L 58.6875 107.925781 L 50.847656 71.226562 C 50.621094 70.15625 49.75 69.386719 48.722656 69.234375 L 21.46875 65.238281 L 47.75 61.527344 C 49.082031 61.34375 50.03125 60.160156 49.941406 58.835938 L 49.574219 25.558594 L 57.117188 57.613281 C 57.375 58.722656 58.324219 59.492188 59.40625 59.574219 Z M 59.40625 59.574219 " fill-opacity="1" fill-rule="nonzero"/></g></g></g></g></g></g></g><g clip-path="url(#60919b6a54)"><path fill="#3270a6" d="M 68.207031 186.179688 C 70.6875 178.355469 70.445312 170.601562 67.570312 162.894531 C 64.617188 154.984375 59.386719 148.226562 53.6875 142.105469 C 47.285156 135.234375 40.453125 128.746094 33.800781 122.128906 C 32.945312 121.277344 31.726562 121.90625 31.484375 122.78125 C 30.996094 122.914062 30.585938 123.300781 30.550781 123.957031 C 30.050781 133.011719 29.882812 142.511719 32.15625 151.464844 C 33.292969 155.953125 35.007812 160.75 37.726562 164.550781 C 40.308594 168.15625 43.90625 171.015625 46.792969 174.375 C 48.339844 176.175781 49.773438 178.179688 50.289062 180.492188 C 50.898438 183.21875 50.175781 186.039062 49.839844 188.816406 C 48.976562 195.894531 53.949219 199.628906 58.386719 204.28125 C 59.59375 205.550781 61.089844 206.585938 62.828125 207.304688 C 63.511719 207.589844 64.113281 207.207031 64.390625 206.644531 C 64.488281 206.574219 64.585938 206.492188 64.667969 206.386719 C 65.359375 205.535156 65.71875 204.628906 65.890625 203.6875 C 66.753906 203.445312 67.152344 202.121094 66.449219 201.503906 C 66.289062 201.363281 66.136719 201.214844 65.976562 201.074219 C 65.929688 200.335938 65.839844 199.585938 65.773438 198.828125 C 65.367188 194.367188 66.882812 190.351562 68.207031 186.179688 " fill-opacity="1" fill-rule="nonzero"/></g><g clip-path="url(#7df1fb9428)"><path fill="#a0bed9" d="M 308.296875 100.222656 C 308.246094 100.070312 308.171875 99.917969 308.0625 99.773438 C 303.355469 93.621094 303.984375 85 298.992188 78.96875 C 296.796875 76.320312 293.746094 74.644531 291.183594 72.40625 C 289.871094 71.261719 288.605469 69.910156 288.089844 68.207031 C 287.453125 66.097656 288.121094 63.800781 288.296875 61.671875 C 289.335938 48.953125 281.976562 36.640625 270.746094 30.9375 C 270.351562 30.03125 268.835938 29.539062 267.988281 30.59375 L 245.269531 58.644531 C 241.417969 63.398438 237.574219 68.152344 233.722656 72.902344 C 231.484375 75.667969 229.039062 78.410156 227.152344 81.460938 C 220.34375 70.765625 210.289062 61.953125 199.121094 56.1875 C 191.152344 52.078125 182.496094 50.425781 173.808594 50.753906 C 149.558594 51.675781 125.09375 68.039062 114.878906 89.46875 C 109.554688 100.640625 108.523438 117.496094 111.90625 131.542969 C 87.316406 123.164062 61.207031 119.71875 35.257812 121.515625 C 34.605469 121.558594 34.136719 121.90625 33.859375 122.363281 C 32.882812 121.484375 30.988281 121.769531 31.0625 123.402344 C 31.425781 131.246094 34.9375 138.585938 41.203125 143.429688 C 46.945312 147.867188 57.382812 150.210938 59.347656 158.152344 C 60.402344 162.394531 58.886719 166.832031 58.375 171.042969 C 57.898438 174.972656 58.445312 178.507812 60.09375 182.101562 C 62.164062 186.609375 64.832031 190.261719 63.265625 195.414062 C 62.210938 198.898438 60.699219 202.007812 62.503906 205.515625 C 63.304688 207.070312 65.402344 206.339844 65.648438 204.984375 C 65.65625 204.980469 65.664062 204.980469 65.671875 204.972656 C 78.898438 196.003906 90.519531 184.445312 101.445312 172.839844 C 108.914062 164.90625 114.574219 156.023438 117.714844 145.933594 C 118.027344 146.429688 118.351562 146.914062 118.683594 147.382812 C 124.429688 155.433594 133.050781 161.0625 142.191406 164.84375 C 162.300781 173.160156 186.242188 172.839844 205.222656 162.1875 C 224.199219 151.539062 237.222656 130.179688 236.09375 108.445312 C 235.953125 105.683594 235.582031 102.964844 235.011719 100.308594 C 236.273438 100.59375 237.53125 100.828125 238.734375 101.070312 C 249.253906 103.195312 259.929688 104.507812 270.648438 104.964844 C 283.203125 105.5 295.785156 104.835938 308.230469 103.09375 C 309.878906 102.863281 309.617188 100.664062 308.296875 100.222656 " fill-opacity="1" fill-rule="nonzero"/></g><path fill="#3270a6" d="M 216.304688 124.375 C 215.996094 123.449219 217.457031 123.054688 217.757812 123.972656 C 218.519531 126.273438 217.777344 128.851562 215.875 130.359375 C 215.121094 130.957031 214.046875 129.894531 214.808594 129.292969 C 216.320312 128.089844 216.910156 126.214844 216.304688 124.375 Z M 209.75 132.140625 C 210.484375 129.328125 211.222656 126.519531 211.957031 123.707031 C 212.203125 122.761719 213.660156 123.164062 213.414062 124.105469 C 212.679688 126.921875 211.945312 129.730469 211.210938 132.542969 C 210.960938 133.484375 209.503906 133.082031 209.75 132.140625 Z M 205.578125 136.585938 C 205.585938 136.515625 205.601562 136.457031 205.613281 136.386719 C 205.609375 136.386719 205.605469 136.386719 205.605469 136.386719 C 205.613281 136.363281 205.613281 136.339844 205.621094 136.320312 C 205.679688 135.941406 205.765625 135.601562 205.886719 135.28125 C 206.957031 131 207.441406 126.671875 207.335938 122.246094 C 207.316406 121.273438 208.828125 121.273438 208.847656 122.246094 C 208.945312 126.320312 208.550781 130.308594 207.683594 134.253906 C 207.863281 134.460938 207.925781 134.757812 207.714844 135.0625 C 207.527344 135.515625 207.339844 135.972656 207.15625 136.429688 C 207.121094 136.550781 207.09375 136.667969 207.0625 136.789062 C 206.84375 137.585938 205.46875 137.449219 205.578125 136.585938 Z M 120.140625 86.980469 C 119.605469 86.164062 120.914062 85.40625 121.441406 86.214844 C 123.167969 88.84375 124.289062 91.738281 124.78125 94.84375 C 124.929688 95.796875 123.472656 96.203125 123.320312 95.246094 C 122.851562 92.253906 121.800781 89.515625 120.140625 86.980469 Z M 119.59375 91.222656 C 119.40625 90.269531 120.863281 89.867188 121.050781 90.820312 C 121.515625 93.164062 122.472656 95.300781 123.984375 97.160156 C 124.59375 97.910156 123.53125 98.984375 122.917969 98.230469 C 121.242188 96.167969 120.105469 93.832031 119.59375 91.222656 Z M 117.136719 95.273438 C 116.410156 94.625 117.480469 93.5625 118.203125 94.207031 C 119.828125 95.65625 121.125 97.394531 122.046875 99.363281 C 122.457031 100.238281 121.152344 101.007812 120.738281 100.125 C 119.867188 98.261719 118.671875 96.648438 117.136719 95.273438 Z M 110.632812 148.136719 C 109.199219 149.785156 107.714844 151.386719 106.09375 152.851562 C 105.136719 153.71875 100.382812 158.289062 100.59375 155.140625 C 100.695312 153.609375 103.546875 151.257812 104.539062 150.199219 C 106.226562 148.402344 108.019531 146.703125 109.90625 145.121094 C 110.234375 144.847656 110.566406 144.582031 110.898438 144.316406 C 111.222656 145.101562 111.542969 145.882812 111.878906 146.660156 C 111.464844 147.152344 111.054688 147.652344 110.632812 148.136719 Z M 105.554688 137.570312 C 101.105469 138.035156 96.054688 138.859375 91.484375 138.128906 C 95.496094 136.332031 101.574219 136.429688 105.332031 136.378906 C 106.214844 136.371094 107.09375 136.382812 107.972656 136.410156 C 108.066406 136.695312 108.164062 136.976562 108.261719 137.257812 C 107.359375 137.371094 106.457031 137.476562 105.554688 137.570312 Z M 131.75 151.363281 C 126.566406 149.664062 122.328125 146.421875 118.292969 142.890625 C 118.175781 142.617188 118.0625 142.34375 117.949219 142.066406 C 121.230469 144.078125 124.769531 145.597656 128.566406 146.570312 C 129.511719 146.8125 129.914062 145.355469 128.96875 145.109375 C 124.617188 144 120.613281 142.171875 116.972656 139.644531 C 116.078125 137.34375 115.25 135.015625 114.5 132.65625 C 117.117188 130.597656 118.78125 127.84375 119.347656 124.453125 C 119.507812 123.5 118.050781 123.089844 117.890625 124.050781 C 117.410156 126.921875 116.113281 129.285156 114.007812 131.097656 C 113.933594 130.855469 113.863281 130.613281 113.792969 130.375 C 113.914062 125.871094 114.582031 121.457031 115.808594 117.09375 C 116.074219 116.15625 114.613281 115.757812 114.351562 116.695312 C 113.402344 120.066406 112.78125 123.464844 112.476562 126.910156 C 110.257812 124.21875 104.875 125.925781 105.992188 129.941406 C 106.390625 131.378906 106.820312 132.804688 107.265625 134.226562 C 105.789062 134.203125 104.308594 134.214844 102.824219 134.292969 C 98.101562 134.546875 91.707031 134.566406 87.933594 137.796875 C 87.308594 138.332031 87.582031 139.394531 88.339844 139.632812 C 93.136719 141.144531 98.347656 140.398438 103.265625 139.960938 C 105.179688 139.792969 107.089844 139.585938 108.992188 139.347656 C 109.34375 140.3125 109.703125 141.273438 110.074219 142.230469 C 108.226562 143.664062 106.453125 145.191406 104.78125 146.835938 C 102.890625 148.699219 95.625 155.105469 98.097656 158.542969 C 100.4375 161.789062 107.125 155.457031 112.855469 148.863281 C 113.308594 149.859375 113.769531 150.851562 114.246094 151.835938 C 116.316406 156.113281 122.855469 152.660156 120.777344 148.375 C 120.402344 147.597656 120.03125 146.8125 119.671875 146.027344 C 123.191406 148.882812 126.945312 151.378906 131.347656 152.820312 C 132.273438 153.125 132.671875 151.667969 131.75 151.363281 Z M 294.695312 100.699219 C 291.667969 98.808594 288.636719 96.914062 285.605469 95.023438 C 284.78125 94.507812 285.539062 93.203125 286.371094 93.71875 C 289.402344 95.609375 292.429688 97.503906 295.460938 99.394531 C 296.285156 99.910156 295.523438 101.214844 294.695312 100.699219 Z M 291.488281 100.972656 C 292.230469 101.605469 291.15625 102.667969 290.417969 102.042969 C 287.410156 99.496094 284.128906 97.382812 280.582031 95.671875 C 279.703125 95.246094 280.46875 93.945312 281.34375 94.363281 C 285.007812 96.132812 288.382812 98.34375 291.488281 100.972656 Z M 282.25 100.058594 C 280.449219 98.953125 278.648438 97.847656 276.847656 96.742188 C 276.019531 96.234375 276.78125 94.925781 277.613281 95.4375 C 279.414062 96.542969 281.214844 97.648438 283.011719 98.753906 C 283.839844 99.261719 283.078125 100.570312 282.25 100.058594 Z M 277.226562 99.695312 C 275.304688 98.722656 273.382812 97.75 271.457031 96.78125 C 270.589844 96.339844 271.355469 95.039062 272.222656 95.472656 C 274.144531 96.445312 276.066406 97.414062 277.988281 98.386719 C 278.859375 98.828125 278.09375 100.132812 277.226562 99.695312 Z M 272.121094 64.808594 C 272.25 59.355469 271.921875 53.949219 271.105469 48.558594 C 270.960938 47.605469 272.417969 47.195312 272.5625 48.15625 C 273.398438 53.683594 273.761719 59.21875 273.632812 64.808594 C 273.613281 65.78125 272.101562 65.78125 272.121094 64.808594 Z M 268.117188 51.203125 C 269.265625 56.132812 270.003906 61.097656 270.347656 66.148438 C 270.410156 67.121094 268.898438 67.113281 268.835938 66.148438 C 268.5 61.234375 267.777344 56.398438 266.65625 51.605469 C 266.4375 50.65625 267.890625 50.257812 268.117188 51.203125 Z M 265.164062 54.542969 C 265.902344 58.492188 266.382812 62.472656 266.609375 66.488281 C 266.664062 67.460938 265.148438 67.457031 265.097656 66.488281 C 264.878906 62.605469 264.421875 58.765625 263.707031 54.941406 C 263.53125 53.992188 264.988281 53.585938 265.164062 54.542969 Z M 262.632812 65.933594 C 262.816406 66.882812 261.355469 67.289062 261.175781 66.335938 C 260.769531 64.21875 260.359375 62.105469 259.957031 59.992188 C 259.773438 59.039062 261.230469 58.636719 261.414062 59.589844 C 261.820312 61.707031 262.222656 63.816406 262.632812 65.933594 Z M 256.28125 63.367188 C 255.925781 62.457031 257.386719 62.066406 257.738281 62.964844 C 258.296875 64.382812 258.726562 65.832031 259.03125 67.324219 C 259.226562 68.273438 257.769531 68.679688 257.574219 67.726562 C 257.269531 66.234375 256.839844 64.785156 256.28125 63.367188 Z M 82.765625 169.890625 C 83.144531 170.777344 81.839844 171.546875 81.464844 170.65625 C 80.894531 169.3125 80.328125 167.972656 79.761719 166.632812 C 79.386719 165.746094 80.691406 164.976562 81.066406 165.871094 C 81.632812 167.210938 82.199219 168.550781 82.765625 169.890625 Z M 79.328125 172.03125 C 79.640625 172.957031 78.175781 173.351562 77.867188 172.433594 C 77.367188 170.953125 76.625 169.597656 75.683594 168.351562 C 75.09375 167.578125 76.410156 166.824219 76.988281 167.589844 C 78.011719 168.9375 78.78125 170.425781 79.328125 172.03125 Z M 75.375 173.589844 C 75.800781 174.460938 74.496094 175.222656 74.066406 174.351562 C 73.253906 172.6875 72.4375 171.023438 71.621094 169.359375 C 71.199219 168.488281 72.5 167.722656 72.929688 168.59375 C 73.742188 170.257812 74.558594 171.925781 75.375 173.589844 Z M 78.300781 140.808594 C 76.179688 139.679688 74.058594 138.546875 71.9375 137.417969 C 71.078125 136.960938 71.839844 135.65625 72.699219 136.113281 C 74.820312 137.242188 76.941406 138.375 79.066406 139.503906 C 79.925781 139.960938 79.160156 141.265625 78.300781 140.808594 Z M 64.296875 136.125 C 67.785156 137.914062 71.121094 139.949219 74.308594 142.234375 C 75.09375 142.796875 74.339844 144.105469 73.546875 143.539062 C 70.359375 141.257812 67.023438 139.21875 63.535156 137.429688 C 62.667969 136.988281 63.433594 135.683594 64.296875 136.125 Z M 70.71875 145.957031 C 66.808594 143.277344 62.738281 140.886719 58.5 138.773438 C 57.625 138.339844 58.390625 137.035156 59.261719 137.46875 C 63.5 139.578125 67.570312 141.972656 71.480469 144.648438 C 72.277344 145.199219 71.519531 146.507812 70.71875 145.957031 Z M 55.621094 138.699219 C 59.875 141.054688 64.125 143.414062 68.375 145.773438 C 69.230469 146.246094 68.464844 147.550781 67.617188 147.078125 C 63.363281 144.71875 59.109375 142.363281 54.859375 140.003906 C 54.007812 139.53125 54.773438 138.226562 55.621094 138.699219 Z M 303.464844 104.203125 C 298.554688 99.5 295.984375 93.792969 294.902344 87.148438 C 294.234375 83.039062 292.648438 80.601562 289.132812 78.410156 C 287.058594 77.113281 284.8125 75.996094 283.082031 74.230469 C 281.148438 72.261719 280.488281 69.882812 280.238281 67.183594 C 279.851562 63.023438 279.589844 58.925781 278.5625 54.855469 C 276.527344 46.804688 272.210938 39.4375 265.136719 34.867188 C 264.050781 34.167969 265.0625 32.421875 266.15625 33.128906 C 271.855469 36.808594 276.015625 42.183594 278.578125 48.445312 C 280.054688 52.046875 280.996094 55.832031 281.550781 59.675781 C 282.117188 63.585938 281.449219 68.683594 283.816406 71.980469 C 287.050781 76.488281 293.644531 77.070312 295.890625 82.609375 C 297.195312 85.824219 297.078125 89.460938 298.242188 92.75 C 299.609375 96.609375 301.945312 99.957031 304.890625 102.777344 C 305.832031 103.675781 304.402344 105.097656 303.464844 104.203125 Z M 70.519531 201.960938 C 71.300781 202.996094 69.550781 204 68.777344 202.976562 C 66.335938 199.765625 66.886719 195.964844 67.664062 192.261719 C 68.335938 189.054688 68.742188 186.125 67.648438 182.964844 C 66.847656 180.667969 65.15625 178.980469 64.273438 176.75 C 61.117188 168.796875 68.300781 159.175781 62.703125 151.652344 C 60.097656 148.144531 55.503906 146.082031 51.984375 143.605469 C 48.929688 141.457031 45.71875 139.496094 43.234375 136.664062 C 39.726562 132.675781 38.691406 126.898438 37.34375 121.9375 C 37.003906 120.679688 38.949219 120.148438 39.289062 121.398438 C 40.796875 126.957031 41.890625 132.773438 46.226562 136.84375 C 49.601562 140.015625 53.847656 142.574219 57.757812 145.050781 C 60.53125 146.8125 63.441406 148.679688 65.105469 151.609375 C 66.757812 154.511719 66.871094 158.164062 66.765625 161.414062 C 66.625 165.875 64.640625 170.695312 65.835938 175.082031 C 66.460938 177.371094 68.199219 179.09375 69.128906 181.242188 C 69.933594 183.101562 70.382812 185.148438 70.398438 187.175781 C 70.429688 192.117188 67.144531 197.519531 70.519531 201.960938 Z M 235.085938 116.390625 C 238.867188 119.902344 236.039062 127.777344 232.238281 124.246094 C 198.113281 92.527344 193.691406 89.0625 161.785156 55.183594 C 158.28125 51.464844 166.371094 48.355469 169.910156 52.117188 C 171.96875 54.304688 173.890625 56.34375 175.695312 58.253906 C 176.972656 57.136719 178.300781 56.078125 179.691406 55.085938 C 180.484375 54.523438 181.238281 55.832031 180.449219 56.394531 C 179.15625 57.316406 177.925781 58.308594 176.730469 59.347656 C 177.074219 59.714844 177.414062 60.070312 177.75 60.425781 C 179.84375 58.472656 182.136719 56.773438 184.648438 55.367188 C 185.496094 54.894531 186.257812 56.199219 185.410156 56.675781 C 183 58.023438 180.800781 59.648438 178.785156 61.523438 C 202.007812 86.066406 204.472656 87.933594 235.085938 116.390625 Z M 212.320312 156.265625 C 207.023438 151.5625 202.261719 147.238281 197.871094 143.15625 C 197.339844 143.574219 196.367188 143.175781 196.660156 142.414062 C 196.699219 142.320312 196.730469 142.222656 196.765625 142.128906 C 171.457031 118.519531 158.664062 103.277344 129.292969 74.300781 C 125.621094 70.679688 131.007812 64.625 134.699219 68.265625 C 162.742188 95.929688 175.675781 111.082031 198.816406 132.941406 C 199.066406 130.789062 199.21875 128.621094 199.386719 126.449219 C 199.460938 125.480469 200.972656 125.476562 200.894531 126.449219 C 200.699219 129.050781 200.519531 131.652344 200.179688 134.226562 C 200.847656 134.851562 201.511719 135.480469 202.199219 136.117188 C 202.894531 131.980469 203.261719 127.8125 203.292969 123.589844 C 203.304688 122.617188 204.8125 122.617188 204.804688 123.589844 C 204.765625 128.230469 204.332031 132.800781 203.511719 137.339844 C 207.839844 141.355469 212.523438 145.613281 217.726562 150.230469 C 221.605469 153.671875 216.199219 159.707031 212.320312 156.265625 Z M 182.117188 167.945312 C 185.726562 171.59375 175.660156 172.882812 172.019531 169.207031 C 146.085938 143.015625 138.777344 134.558594 111.515625 109.710938 C 107.695312 106.226562 109.121094 96.984375 112.953125 100.476562 C 140.214844 125.328125 156.183594 141.757812 182.117188 167.945312 Z M 239.097656 96.847656 C 238.957031 96.835938 238.816406 96.824219 238.675781 96.8125 C 238.285156 95.828125 237.949219 94.824219 237.625 93.816406 C 238.394531 93.78125 239.160156 93.753906 239.929688 93.746094 C 242.992188 93.699219 246.0625 93.800781 249.117188 94.066406 C 250.695312 94.203125 256.753906 94.210938 257.109375 95.574219 C 257.65625 97.671875 241.25 97.023438 239.097656 96.847656 Z M 247.167969 68.984375 C 245.890625 71.066406 241.824219 74.921875 241.144531 75.546875 C 239.230469 77.308594 237.195312 78.921875 235.128906 80.496094 C 234.425781 81.03125 233.71875 81.554688 233.015625 82.082031 C 232.945312 81.953125 232.882812 81.824219 232.816406 81.699219 C 237.035156 76.855469 241.671875 72.425781 247.167969 68.984375 Z M 254.355469 80.332031 C 252.308594 81.527344 249.238281 82.726562 248.351562 83.164062 C 245.652344 84.496094 242.921875 85.757812 240.15625 86.949219 C 238.761719 87.546875 237.359375 88.121094 235.949219 88.675781 C 235.9375 88.644531 235.925781 88.613281 235.917969 88.582031 C 235.667969 87.917969 235.398438 87.261719 235.125 86.613281 C 241.308594 83.910156 247.726562 81.800781 254.355469 80.332031 Z M 257.042969 92.902344 C 253.160156 92.234375 249.234375 91.808594 245.296875 91.644531 C 242.515625 91.523438 239.730469 91.546875 236.957031 91.6875 C 236.859375 91.367188 236.753906 91.046875 236.652344 90.730469 C 239.027344 89.789062 241.382812 88.800781 243.714844 87.75 C 247.304688 86.136719 250.835938 84.402344 254.308594 82.542969 C 256.050781 81.613281 258.328125 80.878906 258.445312 78.65625 C 258.480469 77.929688 257.8125 77.40625 257.121094 77.539062 C 249.214844 79.035156 241.5625 81.410156 234.238281 84.597656 C 234.160156 84.421875 234.082031 84.25 234 84.074219 C 236.363281 82.3125 238.71875 80.53125 240.964844 78.609375 C 243.121094 76.761719 252.050781 69.671875 249.070312 66.308594 C 248.765625 65.960938 248.175781 65.851562 247.765625 66.085938 C 241.546875 69.648438 236.375 74.410156 231.710938 79.683594 C 231.464844 79.257812 231.230469 78.828125 230.976562 78.410156 C 228.769531 74.738281 223.1875 77.195312 223.980469 80.730469 C 221.421875 78.070312 218.347656 75.9375 214.863281 74.46875 C 213.980469 74.09375 213.210938 75.394531 214.101562 75.773438 C 219.175781 77.917969 223.328125 81.441406 226.214844 86.046875 C 222.75 83.425781 218.878906 81.449219 214.65625 80.152344 C 213.726562 79.867188 213.328125 81.328125 214.257812 81.613281 C 219.71875 83.285156 224.527344 86.125 228.628906 90.097656 C 228.921875 90.824219 229.207031 91.554688 229.460938 92.296875 C 229.554688 92.570312 229.644531 92.84375 229.738281 93.121094 C 229.058594 93.34375 228.402344 93.785156 227.871094 94.132812 C 226.089844 95.304688 224.464844 96.679688 222.972656 98.199219 C 222.292969 98.894531 223.363281 99.964844 224.042969 99.269531 C 224.59375 98.707031 228.632812 94.824219 230.265625 94.773438 C 230.433594 95.308594 230.601562 95.84375 230.769531 96.378906 C 230.527344 97.167969 230.089844 98.046875 229.914062 98.453125 C 229.414062 99.566406 228.761719 100.582031 228.015625 101.546875 C 227.421875 102.316406 228.734375 103.070312 229.320312 102.308594 C 230.207031 101.15625 230.945312 99.902344 231.488281 98.566406 C 231.972656 99.945312 232.511719 101.308594 233.199219 102.625 C 235.390625 106.839844 241.929688 103.398438 239.730469 99.167969 C 239.726562 99.160156 239.722656 99.152344 239.722656 99.148438 C 241.78125 99.277344 243.84375 99.375 245.902344 99.414062 C 249.652344 99.484375 253.441406 99.265625 257.089844 98.359375 C 258.5625 97.996094 261.144531 97.558594 261.128906 95.5625 C 261.109375 93.507812 258.5625 93.164062 257.042969 92.902344 " fill-opacity="1" fill-rule="nonzero"/><g fill="#2f4673" fill-opacity="1"><g transform="translate(83.19141, 213.464675)"><g><path d="M 20.3125 0.421875 C 15.4375 0.597656 11.609375 -0.800781 8.828125 -3.78125 C 6.054688 -6.757812 4.160156 -10.539062 3.140625 -15.125 L 2.8125 -16.828125 L 2.296875 -19.546875 C 1.953125 -21.753906 1.78125 -24.132812 1.78125 -26.6875 C 1.78125 -30.882812 2.347656 -34.9375 3.484375 -38.84375 C 4.109375 -41.226562 5.226562 -44.0625 6.84375 -47.34375 C 8.457031 -50.632812 10.285156 -53.550781 12.328125 -56.09375 C 14.421875 -58.757812 17.28125 -60.09375 20.90625 -60.09375 C 22.945312 -60.09375 24.617188 -59.8125 25.921875 -59.25 C 27.566406 -58.457031 28.785156 -57.660156 29.578125 -56.859375 C 30.597656 -55.898438 31.175781 -55.304688 31.3125 -55.078125 C 31.457031 -54.847656 31.53125 -54.507812 31.53125 -54.0625 C 31.476562 -53.664062 31.507812 -53.179688 31.625 -52.609375 C 31.675781 -52.554688 31.703125 -52.273438 31.703125 -51.765625 C 31.703125 -51.421875 31.585938 -51.175781 31.359375 -51.03125 C 31.140625 -50.894531 30.882812 -50.828125 30.59375 -50.828125 C 30.3125 -50.828125 30.113281 -50.882812 30 -51 C 29.15625 -51.738281 28.59375 -52.5625 28.3125 -53.46875 C 27.96875 -54.601562 26.945312 -55.476562 25.25 -56.09375 C 25.070312 -56.207031 24.898438 -56.207031 24.734375 -56.09375 L 22.6875 -55.171875 C 22.632812 -55.171875 22.609375 -55.140625 22.609375 -55.078125 C 22.378906 -54.734375 21.925781 -54.335938 21.25 -53.890625 C 19.832031 -52.867188 18.84375 -51.675781 18.28125 -50.3125 C 16.800781 -46.175781 15.78125 -42.75 15.21875 -40.03125 L 14.953125 -37.5625 L 14.703125 -35.28125 C 14.078125 -31.476562 13.796875 -28.644531 13.859375 -26.78125 L 13.859375 -24.65625 C 13.972656 -22.15625 14 -20.847656 13.9375 -20.734375 C 13.9375 -20.054688 14.09375 -18.640625 14.40625 -16.484375 C 14.71875 -14.335938 15.046875 -12.78125 15.390625 -11.8125 C 17.023438 -6.71875 19.601562 -3.96875 23.125 -3.5625 C 24.875 -3.28125 26.882812 -4.695312 29.15625 -7.8125 C 30.800781 -9.800781 32.390625 -12.269531 33.921875 -15.21875 C 34.316406 -16.0625 34.597656 -16.65625 34.765625 -17 L 37.734375 -23.71875 C 37.910156 -24.113281 38.140625 -24.453125 38.421875 -24.734375 C 38.703125 -25.015625 38.957031 -25.15625 39.1875 -25.15625 C 39.519531 -25.15625 39.6875 -24.929688 39.6875 -24.484375 C 39.6875 -23.910156 39.546875 -23.425781 39.265625 -23.03125 C 39.210938 -22.976562 39.1875 -22.863281 39.1875 -22.6875 C 39.1875 -22.863281 38.644531 -21.25 37.5625 -17.84375 L 37.140625 -16.578125 L 36.71875 -15.296875 C 36.269531 -13.992188 35.644531 -12.691406 34.84375 -11.390625 C 34.84375 -11.390625 34.789062 -11.160156 34.6875 -10.703125 C 34.6875 -10.929688 34.285156 -10.195312 33.484375 -8.5 C 33.265625 -8.101562 33.15625 -7.789062 33.15625 -7.5625 L 33.15625 -7.390625 C 33.15625 -7.335938 33.066406 -7.226562 32.890625 -7.0625 C 32.835938 -6.882812 32.582031 -6.570312 32.125 -6.125 C 31.789062 -5.5 31.59375 -5.128906 31.53125 -5.015625 C 31.414062 -4.617188 30.992188 -4.132812 30.265625 -3.5625 C 30.035156 -3.34375 29.863281 -3.117188 29.75 -2.890625 C 29.695312 -2.660156 29.46875 -2.488281 29.0625 -2.375 C 28.445312 -2.15625 28.140625 -2.046875 28.140625 -2.046875 C 27.398438 -1.929688 26.578125 -1.675781 25.671875 -1.28125 C 24.597656 -0.820312 23.5625 -0.453125 22.5625 -0.171875 C 21.570312 0.109375 20.820312 0.304688 20.3125 0.421875 Z M 20.3125 0.421875 "/></g></g></g><g fill="#2f4673" fill-opacity="1"><g transform="translate(120.079743, 213.464675)"><g><path d="M 29.671875 0 C 27.453125 -0.0507812 25.535156 -0.867188 23.921875 -2.453125 C 22.304688 -4.046875 21.160156 -6.257812 20.484375 -9.09375 C 19.972656 -11.132812 19.601562 -12.832031 19.375 -14.1875 C 19.15625 -15.550781 18.988281 -17.453125 18.875 -19.890625 C 18.757812 -22.492188 18.726562 -23.992188 18.78125 -24.390625 C 18.78125 -24.671875 18.753906 -24.84375 18.703125 -24.90625 C 18.421875 -24.625 18.28125 -24.425781 18.28125 -24.3125 C 18.164062 -23.6875 17.878906 -22.976562 17.421875 -22.1875 C 16.179688 -19.800781 15.5625 -18.242188 15.5625 -17.515625 L 15.390625 -16.828125 C 15.160156 -16.429688 15.128906 -16.117188 15.296875 -15.890625 C 15.359375 -15.835938 15.300781 -15.640625 15.125 -15.296875 C 14.613281 -14.054688 14.25 -13.265625 14.03125 -12.921875 L 13.859375 -12.40625 C 13.859375 -11.726562 13.71875 -11.160156 13.4375 -10.703125 C 13.320312 -10.597656 13.289062 -10.488281 13.34375 -10.375 C 13.457031 -10.195312 12.875 -9.515625 11.59375 -8.328125 C 10.320312 -7.140625 9.460938 -6.488281 9.015625 -6.375 L 8.5 -6.125 C 8.332031 -6.007812 8.203125 -5.921875 8.109375 -5.859375 C 8.023438 -5.804688 7.957031 -5.75 7.90625 -5.6875 C 7 -5.351562 6.347656 -5.1875 5.953125 -5.1875 L 5.78125 -5.1875 C 5.613281 -5.1875 5.472656 -5.15625 5.359375 -5.09375 L 5.015625 -5.015625 C 3.484375 -5.128906 2.40625 -5.351562 1.78125 -5.6875 C 1.15625 -6.03125 0.617188 -6.6875 0.171875 -7.65625 C -0.503906 -9.007812 -1.015625 -10.679688 -1.359375 -12.671875 C -1.640625 -14.535156 -1.78125 -16.257812 -1.78125 -17.84375 C -1.78125 -20.164062 -1.582031 -22.429688 -1.1875 -24.640625 C -0.789062 -26.859375 -0.3125 -28.757812 0.25 -30.34375 C 0.757812 -31.644531 1.523438 -32.890625 2.546875 -34.078125 C 2.660156 -34.253906 2.890625 -34.457031 3.234375 -34.6875 C 3.859375 -34.96875 4.566406 -35.175781 5.359375 -35.3125 C 6.148438 -35.457031 6.785156 -35.539062 7.265625 -35.5625 C 7.742188 -35.59375 8.039062 -35.582031 8.15625 -35.53125 C 8.4375 -35.582031 8.945312 -35.609375 9.6875 -35.609375 C 10.707031 -35.609375 11.785156 -35.550781 12.921875 -35.4375 C 14.054688 -35.332031 14.960938 -35.191406 15.640625 -35.015625 C 16.035156 -34.898438 16.347656 -34.734375 16.578125 -34.515625 C 17.023438 -34.117188 17.675781 -33.664062 18.53125 -33.15625 C 18.757812 -32.976562 18.816406 -32.75 18.703125 -32.46875 C 18.523438 -32.019531 18.097656 -31.625 17.421875 -31.28125 C 16.742188 -30.9375 16.066406 -30.796875 15.390625 -30.859375 C 14.648438 -30.859375 13.96875 -30.570312 13.34375 -30 C 12.71875 -29.4375 12.09375 -28.503906 11.46875 -27.203125 C 10.5625 -25.046875 10 -23.398438 9.78125 -22.265625 C 9.664062 -21.421875 9.550781 -20.882812 9.4375 -20.65625 C 9.320312 -20.539062 9.320312 -20.398438 9.4375 -20.234375 C 9.4375 -19.890625 9.40625 -19.691406 9.34375 -19.640625 L 9.09375 -14.453125 C 9.09375 -13.773438 9.175781 -13.4375 9.34375 -13.4375 C 9.457031 -13.320312 9.601562 -13.40625 9.78125 -13.6875 C 10.113281 -13.96875 10.476562 -14.535156 10.875 -15.390625 C 12.46875 -18.441406 14.171875 -21.640625 15.984375 -24.984375 C 16.941406 -26.628906 17.960938 -28.191406 19.046875 -29.671875 L 19.46875 -30.09375 C 20.707031 -30.539062 21.328125 -30.765625 21.328125 -30.765625 L 21.84375 -30.859375 C 23.882812 -30.742188 25.441406 -30.398438 26.515625 -29.828125 C 26.972656 -29.660156 27.34375 -29.4375 27.625 -29.15625 C 27.90625 -28.875 28.046875 -28.59375 28.046875 -28.3125 L 27.96875 -27.96875 C 27.851562 -27.6875 27.851562 -27.375 27.96875 -27.03125 C 28.019531 -26.914062 28.132812 -25.835938 28.3125 -23.796875 C 28.3125 -23.566406 28.28125 -23.425781 28.21875 -23.375 C 28.164062 -23.144531 28.164062 -22.804688 28.21875 -22.359375 C 28.28125 -22.242188 28.3125 -22.015625 28.3125 -21.671875 L 28.046875 -16.65625 C 27.929688 -15.695312 28.070312 -14.140625 28.46875 -11.984375 L 28.734375 -9.78125 L 29.0625 -7.5625 L 29.40625 -5.359375 C 29.519531 -4.453125 30.03125 -3.882812 30.9375 -3.65625 C 31.101562 -3.59375 31.414062 -3.5625 31.875 -3.5625 C 33.238281 -3.625 34.382812 -4.066406 35.3125 -4.890625 C 36.25 -5.710938 37.285156 -7.085938 38.421875 -9.015625 C 39.378906 -10.648438 42.15625 -18.5 46.75 -32.5625 C 47.09375 -33.570312 47.460938 -34.078125 47.859375 -34.078125 C 48.191406 -34.078125 48.472656 -33.835938 48.703125 -33.359375 C 48.929688 -32.878906 49.046875 -32.382812 49.046875 -31.875 C 49.046875 -31.644531 49.015625 -31.472656 48.953125 -31.359375 C 44.992188 -17.078125 41.738281 -8.039062 39.1875 -4.25 C 38.445312 -3.175781 37.128906 -2.195312 35.234375 -1.3125 C 33.335938 -0.4375 31.484375 0 29.671875 0 Z M 29.671875 0 "/></g></g></g><g fill="#2f4673" fill-opacity="1"><g transform="translate(164.192753, 213.464675)"><g><path d="M 23.71875 -4.328125 C 23.375 -4.328125 22.804688 -4.441406 22.015625 -4.671875 C 20.710938 -5.179688 19.5625 -6.0625 18.5625 -7.3125 C 17.570312 -8.5625 16.910156 -10.09375 16.578125 -11.90625 C 16.296875 -13.425781 16.15625 -14.8125 16.15625 -16.0625 C 16.15625 -18.957031 16.664062 -22.046875 17.6875 -25.328125 C 18.019531 -26.691406 18.441406 -28.035156 18.953125 -29.359375 C 19.460938 -30.691406 20.253906 -32.71875 21.328125 -35.4375 C 21.554688 -36.007812 21.726562 -36.632812 21.84375 -37.3125 C 21.90625 -37.375 21.9375 -37.515625 21.9375 -37.734375 C 21.9375 -38.023438 21.789062 -38.113281 21.5 -38 C 21.050781 -37.882812 20.6875 -37.738281 20.40625 -37.5625 C 19.5 -37 18.546875 -36.207031 17.546875 -35.1875 C 16.554688 -34.164062 15.835938 -33.257812 15.390625 -32.46875 L 13.765625 -29.75 C 12.578125 -27.144531 11.84375 -25.414062 11.5625 -24.5625 C 10.988281 -22.8125 10.140625 -20.769531 9.015625 -18.4375 L 8.84375 -17.6875 C 8.613281 -17.175781 8.257812 -16.210938 7.78125 -14.796875 C 7.300781 -13.378906 7.0625 -12.582031 7.0625 -12.40625 C 7 -12.238281 6.910156 -12.097656 6.796875 -11.984375 C 6.515625 -11.703125 6.375 -11.421875 6.375 -11.140625 C 6.375 -11.253906 6.257812 -10.882812 6.03125 -10.03125 C 5.914062 -9.914062 5.859375 -9.859375 5.859375 -9.859375 C 5.691406 -9.804688 5.492188 -9.609375 5.265625 -9.265625 C 5.148438 -9.035156 4.640625 -8.664062 3.734375 -8.15625 C 3.566406 -7.988281 3.296875 -8.015625 2.921875 -8.234375 C 2.554688 -8.460938 2.207031 -8.691406 1.875 -8.921875 C 1.53125 -9.203125 1.21875 -9.710938 0.9375 -10.453125 C 0.425781 -11.816406 0.0859375 -13.191406 -0.078125 -14.578125 C -0.253906 -15.960938 -0.367188 -17.617188 -0.421875 -19.546875 C -0.484375 -20.222656 -0.515625 -21.160156 -0.515625 -22.359375 C -0.515625 -23.492188 -0.484375 -24.3125 -0.421875 -24.8125 L -0.421875 -25.84375 L -0.34375 -26.859375 C -0.28125 -28.953125 -0.109375 -31.101562 0.171875 -33.3125 L 0.515625 -35.703125 C 0.515625 -35.929688 0.554688 -36.539062 0.640625 -37.53125 C 0.722656 -38.519531 0.847656 -39.550781 1.015625 -40.625 C 1.128906 -41.195312 1.1875 -41.738281 1.1875 -42.25 C 1.132812 -42.53125 1.175781 -42.835938 1.3125 -43.171875 C 1.457031 -43.515625 1.703125 -43.6875 2.046875 -43.6875 L 2.296875 -43.6875 C 2.640625 -43.632812 2.894531 -43.632812 3.0625 -43.6875 C 3.175781 -43.800781 3.257812 -43.800781 3.3125 -43.6875 L 4.25 -43.4375 C 4.707031 -43.375 5.0625 -43.285156 5.3125 -43.171875 C 5.5625 -43.066406 5.890625 -42.84375 6.296875 -42.5 C 7.253906 -41.707031 8.046875 -40.800781 8.671875 -39.78125 C 9.410156 -38.53125 9.664062 -37.507812 9.4375 -36.71875 C 9.375 -36.664062 9.34375 -36.550781 9.34375 -36.375 C 9.40625 -35.976562 9.4375 -35.242188 9.4375 -34.171875 L 9.4375 -33.0625 L 9.265625 -31.28125 C 9.210938 -31.050781 9.1875 -30.566406 9.1875 -29.828125 C 9.1875 -29.035156 9.15625 -28.554688 9.09375 -28.390625 C 9.09375 -27.203125 9.035156 -26.097656 8.921875 -25.078125 L 8.921875 -24.8125 C 9.492188 -25.550781 9.804688 -26.035156 9.859375 -26.265625 C 10.828125 -28.472656 11.988281 -30.457031 13.34375 -32.21875 C 13.40625 -32.269531 13.601562 -32.582031 13.9375 -33.15625 L 14.53125 -34 C 14.644531 -34.164062 15.1875 -34.789062 16.15625 -35.875 C 16.769531 -36.664062 17.078125 -37.0625 17.078125 -37.0625 C 19.003906 -38.988281 20.960938 -39.976562 22.953125 -40.03125 C 23.347656 -40.03125 23.515625 -40.003906 23.453125 -39.953125 C 23.960938 -40.066406 24.488281 -39.976562 25.03125 -39.6875 C 25.570312 -39.40625 26.039062 -38.925781 26.4375 -38.25 C 26.550781 -38.082031 26.617188 -37.941406 26.640625 -37.828125 C 26.671875 -37.710938 26.660156 -37.710938 26.609375 -37.828125 C 27.285156 -36.742188 27.679688 -35.695312 27.796875 -34.6875 C 27.796875 -34.507812 27.820312 -34.363281 27.875 -34.25 L 27.96875 -33.828125 C 28.019531 -33.597656 28.046875 -33.285156 28.046875 -32.890625 L 28.046875 -32.46875 C 28.046875 -32.1875 28.078125 -32.015625 28.140625 -31.953125 L 28.21875 -31.1875 C 28.21875 -30.90625 28.160156 -30.484375 28.046875 -29.921875 C 27.816406 -28.503906 27.503906 -26.914062 27.109375 -25.15625 L 25.578125 -18.953125 L 25.15625 -17.6875 L 24.8125 -16.40625 L 24.8125 -16.15625 C 24.644531 -15.976562 24.535156 -15.722656 24.484375 -15.390625 L 23.890625 -12.921875 C 23.828125 -12.859375 23.796875 -12.742188 23.796875 -12.578125 L 23.796875 -12.0625 C 23.679688 -11.726562 23.625 -11.421875 23.625 -11.140625 C 23.625 -10.335938 23.804688 -9.597656 24.171875 -8.921875 C 24.546875 -8.242188 25.046875 -7.929688 25.671875 -7.984375 C 25.898438 -7.984375 26.125 -8.097656 26.34375 -8.328125 C 27.03125 -8.898438 27.597656 -9.425781 28.046875 -9.90625 C 28.503906 -10.382812 29.128906 -11.101562 29.921875 -12.0625 C 30.203125 -12.570312 31.050781 -14.046875 32.46875 -16.484375 C 32.8125 -17.222656 33.632812 -18.242188 34.9375 -19.546875 C 35.382812 -20.453125 36.273438 -22.066406 37.609375 -24.390625 C 38.941406 -26.710938 39.804688 -28.019531 40.203125 -28.3125 C 40.316406 -28.363281 40.53125 -28.21875 40.84375 -27.875 C 41.15625 -27.539062 41.28125 -27.316406 41.21875 -27.203125 C 41.050781 -24.816406 38.191406 -19.570312 32.640625 -11.46875 C 32.078125 -10.625 31.195312 -9.535156 30 -8.203125 C 28.8125 -6.867188 27.847656 -6.003906 27.109375 -5.609375 C 26.492188 -5.265625 25.898438 -4.960938 25.328125 -4.703125 C 24.765625 -4.453125 24.226562 -4.328125 23.71875 -4.328125 Z M 23.71875 -4.328125 "/></g></g></g><g fill="#2f4673" fill-opacity="1"><g transform="translate(202.016046, 213.464675)"><g><path d="M 25.15625 -8.25 C 24.757812 -8.25 24.445312 -8.359375 24.21875 -8.578125 C 23.09375 -9.378906 22.257812 -10.203125 21.71875 -11.046875 C 21.175781 -11.898438 20.707031 -12.945312 20.3125 -14.1875 C 18.78125 -18.332031 17.703125 -24.507812 17.078125 -32.71875 L 17 -33.0625 L 16.75 -32.296875 C 16.632812 -31.785156 16.148438 -30.398438 15.296875 -28.140625 C 15.179688 -27.628906 14.757812 -26.351562 14.03125 -24.3125 L 13.515625 -22.859375 C 13.460938 -22.460938 13.09375 -21.65625 12.40625 -20.4375 C 11.726562 -19.21875 10.960938 -18.15625 10.109375 -17.25 C 9.890625 -17.082031 9.722656 -16.914062 9.609375 -16.75 C 8.921875 -15.84375 7.925781 -15.132812 6.625 -14.625 C 6.457031 -14.5625 6.34375 -14.515625 6.28125 -14.484375 C 6.226562 -14.460938 6.203125 -14.453125 6.203125 -14.453125 C 5.972656 -14.335938 5.75 -14.28125 5.53125 -14.28125 C 5.414062 -14.28125 5.1875 -14.335938 4.84375 -14.453125 C 3.9375 -14.898438 3.226562 -15.210938 2.71875 -15.390625 C 2.09375 -15.671875 1.582031 -16.09375 1.1875 -16.65625 C 0.5625 -17.625 0.0507812 -18.957031 -0.34375 -20.65625 C -0.738281 -22.351562 -0.90625 -24.164062 -0.84375 -26.09375 C -0.738281 -27.28125 -0.539062 -28.523438 -0.25 -29.828125 C 0.03125 -31.023438 0.195312 -31.648438 0.25 -31.703125 L 0.515625 -32.640625 C 0.566406 -32.921875 0.675781 -33.234375 0.84375 -33.578125 L 1.78125 -35.4375 L 2.296875 -36.375 C 2.578125 -36.882812 2.75 -37.195312 2.8125 -37.3125 C 3.601562 -38.5 4.222656 -39.320312 4.671875 -39.78125 C 5.128906 -40.226562 5.664062 -40.691406 6.28125 -41.171875 C 6.90625 -41.660156 7.363281 -42.019531 7.65625 -42.25 L 8.25 -42.5 C 8.695312 -42.550781 9.316406 -42.578125 10.109375 -42.578125 C 11.523438 -42.578125 12.660156 -42.4375 13.515625 -42.15625 C 14.253906 -41.925781 14.765625 -41.726562 15.046875 -41.5625 C 15.328125 -41.394531 15.664062 -41.082031 16.0625 -40.625 L 16.75 -43.4375 L 16.65625 -45.734375 C 16.601562 -46.640625 16.578125 -47.742188 16.578125 -49.046875 C 16.578125 -50.179688 16.660156 -52.445312 16.828125 -55.84375 L 17.078125 -59.75 C 17.191406 -61.5625 17.25 -62.5 17.25 -62.5625 L 17.6875 -69.609375 C 17.6875 -70.066406 17.628906 -71.144531 17.515625 -72.84375 C 17.398438 -73.300781 17.253906 -73.582031 17.078125 -73.6875 L 16.921875 -74.03125 C 16.742188 -74.425781 16.882812 -74.679688 17.34375 -74.796875 C 17.90625 -74.910156 18.300781 -74.96875 18.53125 -74.96875 C 19.664062 -74.96875 20.726562 -74.628906 21.71875 -73.953125 C 22.707031 -73.273438 23.457031 -72.535156 23.96875 -71.734375 C 24.820312 -70.546875 25.359375 -69.5 25.578125 -68.59375 L 25.84375 -67.578125 L 26.015625 -66.640625 C 26.179688 -66.128906 26.265625 -65.394531 26.265625 -64.4375 C 26.265625 -63.1875 26.207031 -61.9375 26.09375 -60.6875 L 25.921875 -59.421875 L 25.921875 -59.078125 L 25.25 -55.421875 L 24.734375 -50.75 L 24.484375 -47.34375 L 24.3125 -44.203125 L 24.21875 -43.1875 L 24.3125 -42.328125 L 24.3125 -38.9375 C 24.3125 -38.59375 24.28125 -38.28125 24.21875 -38 C 24.164062 -37.707031 24.140625 -37.109375 24.140625 -36.203125 L 24.140625 -32.8125 C 24.535156 -26.75 24.816406 -23.066406 24.984375 -21.765625 C 24.984375 -21.472656 25.007812 -21.128906 25.0625 -20.734375 C 25.125 -20.335938 25.1875 -20 25.25 -19.71875 L 25.328125 -18.875 C 25.390625 -18.582031 25.421875 -18.269531 25.421875 -17.9375 C 25.703125 -16.289062 25.941406 -14.957031 26.140625 -13.9375 C 26.335938 -12.914062 26.492188 -12.265625 26.609375 -11.984375 C 27.054688 -13.003906 27.59375 -13.851562 28.21875 -14.53125 C 30.9375 -17.644531 32.945312 -22.066406 34.25 -27.796875 C 34.644531 -29.492188 34.957031 -30.515625 35.1875 -30.859375 C 35.46875 -31.191406 35.78125 -31.359375 36.125 -31.359375 C 36.40625 -31.359375 36.644531 -31.21875 36.84375 -30.9375 C 37.039062 -30.65625 37.140625 -30.257812 37.140625 -29.75 C 37.140625 -28.675781 36.234375 -25.898438 34.421875 -21.421875 C 32.890625 -17.910156 31.359375 -14.90625 29.828125 -12.40625 C 29.210938 -11.382812 28.460938 -10.4375 27.578125 -9.5625 C 26.703125 -8.6875 25.894531 -8.25 25.15625 -8.25 Z M 6.96875 -18.609375 L 7.5625 -19.203125 C 8.019531 -19.710938 8.472656 -20.40625 8.921875 -21.28125 C 9.378906 -22.164062 9.945312 -23.316406 10.625 -24.734375 C 11.582031 -26.828125 12.742188 -29.972656 14.109375 -34.171875 L 14.53125 -35.875 L 15.046875 -37.5625 C 15.097656 -37.675781 15.207031 -37.957031 15.375 -38.40625 C 15.550781 -38.863281 15.664062 -39.238281 15.71875 -39.53125 L 15.390625 -39.4375 C 14.992188 -39.101562 14.3125 -38.9375 13.34375 -38.9375 C 13.289062 -38.988281 13.117188 -38.957031 12.828125 -38.84375 C 12.035156 -38.394531 11.253906 -37.570312 10.484375 -36.375 C 9.722656 -35.1875 9.144531 -34.023438 8.75 -32.890625 L 8.25 -31.796875 C 7.789062 -30.992188 7.390625 -29.800781 7.046875 -28.21875 C 6.710938 -26.632812 6.546875 -25.445312 6.546875 -24.65625 L 6.453125 -22.53125 C 6.453125 -22.1875 6.46875 -21.925781 6.5 -21.75 C 6.53125 -21.582031 6.546875 -21.472656 6.546875 -21.421875 L 6.546875 -20.90625 Z M 6.96875 -18.609375 "/></g></g></g><g fill="#2f4673" fill-opacity="1"><g transform="translate(234.65457, 213.464675)"><g><path d="M 10.453125 18.703125 C 10.335938 18.703125 10.222656 18.613281 10.109375 18.4375 C 9.890625 18.21875 9.691406 18.109375 9.515625 18.109375 L 9.34375 18.109375 C 9.175781 18.109375 8.921875 18.050781 8.578125 17.9375 C 7.503906 17.476562 6.882812 17.109375 6.71875 16.828125 C 6.539062 16.660156 6.398438 16.546875 6.296875 16.484375 C 6.296875 16.484375 6.148438 16.34375 5.859375 16.0625 C 5.742188 15.945312 5.6875 15.863281 5.6875 15.8125 C 5.75 15.644531 5.75 15.191406 5.6875 14.453125 C 5.582031 13.660156 5.640625 12.328125 5.859375 10.453125 C 6.035156 8.359375 6.53125 6.148438 7.34375 3.828125 C 8.164062 1.503906 9.03125 -0.476562 9.9375 -2.125 C 12.488281 -6.601562 15.578125 -10.9375 19.203125 -15.125 L 21.171875 -17.34375 C 21.273438 -17.457031 21.382812 -17.710938 21.5 -18.109375 C 21.5625 -18.328125 21.875 -19.96875 22.4375 -23.03125 C 23.738281 -30.289062 24.421875 -34.285156 24.484375 -35.015625 C 24.535156 -35.296875 24.53125 -35.453125 24.46875 -35.484375 C 24.414062 -35.515625 24.304688 -35.414062 24.140625 -35.1875 C 23.972656 -34.957031 23.859375 -34.84375 23.796875 -34.84375 L 23.625 -34.59375 C 23.625 -34.3125 23.515625 -34.03125 23.296875 -33.75 C 23.179688 -33.632812 23.09375 -33.578125 23.03125 -33.578125 C 22.976562 -33.628906 22.921875 -33.570312 22.859375 -33.40625 L 21.765625 -31.796875 C 21.648438 -31.679688 21.59375 -31.59375 21.59375 -31.53125 C 21.644531 -31.363281 21.554688 -31.082031 21.328125 -30.6875 C 20.648438 -29.5 20.195312 -28.734375 19.96875 -28.390625 L 18.78125 -26.34375 L 17.171875 -23.546875 C 17.109375 -23.429688 16.992188 -23.144531 16.828125 -22.6875 C 16.773438 -22.582031 16.601562 -22.273438 16.3125 -21.765625 L 15.640625 -20.40625 C 14.785156 -18.875 13.820312 -17.851562 12.75 -17.34375 C 12.632812 -17.28125 12.40625 -17.082031 12.0625 -16.75 C 11.21875 -15.894531 10.539062 -15.382812 10.03125 -15.21875 C 9.75 -15.15625 9.492188 -15.050781 9.265625 -14.90625 C 9.035156 -14.769531 8.664062 -14.503906 8.15625 -14.109375 C 7.925781 -13.992188 7.757812 -13.96875 7.65625 -14.03125 C 7.707031 -14.03125 7.453125 -14.082031 6.890625 -14.1875 C 6.316406 -14.363281 6.0625 -14.421875 6.125 -14.359375 C 4.59375 -14.929688 3.597656 -16.546875 3.140625 -19.203125 C 3.140625 -19.265625 3.082031 -19.945312 2.96875 -21.25 L 2.71875 -27.375 C 2.71875 -28.164062 2.691406 -28.929688 2.640625 -29.671875 C 2.578125 -30.285156 2.546875 -31.019531 2.546875 -31.875 L 2.546875 -34.6875 L 2.125 -38.84375 L 1.78125 -40.71875 C 1.726562 -40.769531 1.703125 -40.96875 1.703125 -41.3125 C 1.753906 -41.476562 1.78125 -41.675781 1.78125 -41.90625 L 2.046875 -42.328125 C 2.148438 -42.441406 2.316406 -42.472656 2.546875 -42.421875 L 3.40625 -42.25 C 4.019531 -42.132812 4.671875 -41.9375 5.359375 -41.65625 L 6.71875 -41.140625 L 7.0625 -40.890625 C 8.019531 -39.804688 8.5 -39.320312 8.5 -39.4375 L 8.421875 -39.53125 L 9.1875 -38.59375 C 9.582031 -38.019531 9.921875 -37.425781 10.203125 -36.8125 C 10.253906 -36.695312 10.378906 -36.4375 10.578125 -36.03125 C 10.773438 -35.632812 10.90625 -35.296875 10.96875 -35.015625 C 11.195312 -33.878906 11.3125 -33.203125 11.3125 -32.984375 L 11.3125 -32.640625 L 11.46875 -31.1875 C 11.53125 -31.019531 11.5625 -30.679688 11.5625 -30.171875 C 11.5 -29.773438 11.5 -29.460938 11.5625 -29.234375 L 11.5625 -26.515625 C 11.5 -26.234375 11.46875 -25.921875 11.46875 -25.578125 C 11.46875 -24.453125 11.5 -23.859375 11.5625 -23.796875 L 11.5625 -22.953125 C 11.5625 -22.554688 11.585938 -22.269531 11.640625 -22.09375 C 11.640625 -21.988281 11.671875 -21.90625 11.734375 -21.84375 C 12.015625 -22.125 12.269531 -22.492188 12.5 -22.953125 L 15.390625 -27.96875 L 16.65625 -30.171875 C 17.164062 -31.023438 17.59375 -31.765625 17.9375 -32.390625 C 20.3125 -36.523438 22.519531 -39.269531 24.5625 -40.625 C 25.53125 -41.25 26.378906 -41.59375 27.109375 -41.65625 L 28.140625 -41.734375 L 28.390625 -41.734375 C 29.523438 -41.222656 30.257812 -40.828125 30.59375 -40.546875 C 30.9375 -40.265625 31.222656 -39.8125 31.453125 -39.1875 C 31.734375 -38.332031 31.988281 -37.253906 32.21875 -35.953125 C 32.269531 -35.722656 32.296875 -35.382812 32.296875 -34.9375 L 32.296875 -34.421875 L 32.390625 -33.15625 L 32.125 -28.5625 L 31.953125 -26.6875 C 32.640625 -26.96875 34.664062 -28.085938 38.03125 -30.046875 C 41.40625 -32.003906 43.660156 -33.347656 44.796875 -34.078125 C 45.023438 -34.140625 45.191406 -34.097656 45.296875 -33.953125 C 45.410156 -33.816406 45.46875 -33.601562 45.46875 -33.3125 C 45.46875 -32.914062 45.328125 -32.519531 45.046875 -32.125 C 44.765625 -31.84375 42.695312 -30.539062 38.84375 -28.21875 C 34.9375 -25.945312 32.613281 -24.503906 31.875 -23.890625 C 31.757812 -23.773438 31.617188 -23.546875 31.453125 -23.203125 C 31.679688 -23.203125 31.9375 -23.34375 32.21875 -23.625 C 32.21875 -23.507812 32.1875 -23.453125 32.125 -23.453125 C 31.675781 -23.234375 31.394531 -22.695312 31.28125 -21.84375 L 30.515625 -17.6875 L 30 -15.125 C 30 -14.957031 29.972656 -14.816406 29.921875 -14.703125 C 29.578125 -13.859375 29.238281 -12.695312 28.90625 -11.21875 C 28.90625 -11.21875 28.707031 -10.625 28.3125 -9.4375 C 28.25 -9.550781 28.191406 -9.210938 28.140625 -8.421875 C 28.023438 -7.734375 27.878906 -7.222656 27.703125 -6.890625 C 27.765625 -6.941406 27.710938 -6.6875 27.546875 -6.125 L 27.375 -5.4375 L 27.03125 -4.25 C 26.96875 -4.019531 26.851562 -3.625 26.6875 -3.0625 L 26.015625 -1.28125 C 25.722656 -0.707031 25.523438 -0.140625 25.421875 0.421875 C 25.421875 0.535156 25.390625 0.625 25.328125 0.6875 L 23.71875 5.015625 L 22.265625 7.984375 C 21.703125 9.179688 21.363281 9.945312 21.25 10.28125 C 21.195312 10.5625 20.96875 10.875 20.5625 11.21875 L 19.46875 13.265625 C 19.289062 13.660156 18.921875 14.222656 18.359375 14.953125 C 18.304688 15.015625 18.191406 15.046875 18.015625 15.046875 L 19.296875 12.578125 C 19.296875 12.578125 19.179688 12.691406 18.953125 12.921875 C 18.273438 14.171875 17.597656 15.132812 16.921875 15.8125 C 16.515625 16.207031 16.3125 16.347656 16.3125 16.234375 L 16.578125 15.890625 L 16.40625 15.8125 C 16.0625 15.644531 15.832031 15.628906 15.71875 15.765625 C 15.613281 15.910156 15.53125 16.007812 15.46875 16.0625 C 15.019531 16.632812 14.59375 16.945312 14.1875 17 C 14.019531 17.050781 13.566406 17.304688 12.828125 17.765625 C 12.492188 18.109375 12.171875 18.347656 11.859375 18.484375 C 11.546875 18.628906 11.078125 18.703125 10.453125 18.703125 Z M 8.578125 15.71875 C 10.222656 15.550781 11.515625 14.914062 12.453125 13.8125 C 13.390625 12.707031 14.054688 11.472656 14.453125 10.109375 C 14.503906 9.828125 14.726562 9.234375 15.125 8.328125 C 15.519531 7.140625 15.71875 6.546875 15.71875 6.546875 C 17.988281 -1.609375 19.550781 -7.757812 20.40625 -11.90625 C 20.457031 -12.125 20.457031 -12.265625 20.40625 -12.328125 L 20.3125 -12.328125 C 20.3125 -12.328125 20 -11.957031 19.375 -11.21875 C 19.09375 -10.9375 18.78125 -10.566406 18.4375 -10.109375 C 18.101562 -9.546875 17.539062 -8.726562 16.75 -7.65625 C 15.382812 -5.78125 14.050781 -3.707031 12.75 -1.4375 C 11.957031 -0.132812 11.5625 0.539062 11.5625 0.59375 L 9.6875 4.59375 L 9.609375 4.671875 C 9.210938 5.753906 8.84375 6.898438 8.5 8.109375 C 8.15625 9.328125 7.898438 10.675781 7.734375 12.15625 C 7.617188 12.601562 7.5625 13.082031 7.5625 13.59375 C 7.5625 14.28125 7.703125 14.90625 7.984375 15.46875 C 8.097656 15.75 8.296875 15.832031 8.578125 15.71875 Z M 8.578125 15.71875 "/></g></g></g><g fill="#2f4673" fill-opacity="1"><g transform="translate(275.027743, 213.464675)"><g/></g></g><g fill="#2f4673" fill-opacity="1"><g transform="translate(296.106798, 213.464675)"><g><path d="M 10.96875 2.125 L 8.578125 2.546875 C 8.296875 2.609375 7.988281 2.582031 7.65625 2.46875 C 7.195312 2.238281 6.828125 2.125 6.546875 2.125 L 6.296875 2.125 C 5.953125 2.125 5.722656 1.984375 5.609375 1.703125 C 5.554688 1.472656 5.332031 1.300781 4.9375 1.1875 L 4.59375 1.109375 C 4.019531 1.046875 3.734375 0.675781 3.734375 0 C 3.796875 -0.394531 3.738281 -0.789062 3.5625 -1.1875 C 2.832031 -2.320312 2.46875 -3.625 2.46875 -5.09375 C 2.46875 -5.71875 2.492188 -6.203125 2.546875 -6.546875 C 3.222656 -10.515625 4.640625 -14.023438 6.796875 -17.078125 C 8.328125 -19.003906 9.578125 -20.394531 10.546875 -21.25 C 10.765625 -21.476562 10.875 -21.734375 10.875 -22.015625 C 10.875 -22.179688 10.847656 -22.320312 10.796875 -22.4375 C 10.003906 -25.15625 9.066406 -27.507812 7.984375 -29.5 L 5.609375 -33.828125 C 4.242188 -36.265625 3.320312 -38.003906 2.84375 -39.046875 C 2.363281 -40.097656 2.035156 -41.078125 1.859375 -41.984375 C 1.691406 -42.890625 1.609375 -44.222656 1.609375 -45.984375 C 1.609375 -48.816406 2.160156 -51.410156 3.265625 -53.765625 C 4.378906 -56.117188 6.238281 -57.832031 8.84375 -58.90625 C 10.988281 -59.695312 13.171875 -60.066406 15.390625 -60.015625 C 15.835938 -60.015625 16.347656 -59.867188 16.921875 -59.578125 L 17.84375 -59.15625 C 18.238281 -58.988281 18.492188 -58.789062 18.609375 -58.5625 C 19.804688 -57.257812 20.347656 -56.632812 20.234375 -56.6875 C 20.347656 -56.6875 20.429688 -56.601562 20.484375 -56.4375 C 20.941406 -55.082031 21.171875 -53.894531 21.171875 -52.875 C 21.171875 -52.300781 21.066406 -51.703125 20.859375 -51.078125 C 20.660156 -50.460938 20.421875 -49.8125 20.140625 -49.125 L 19.46875 -47.4375 C 19.351562 -46.976562 19.066406 -46.59375 18.609375 -46.28125 C 18.160156 -45.96875 17.679688 -45.8125 17.171875 -45.8125 C 16.660156 -45.8125 16.234375 -45.984375 15.890625 -46.328125 L 15.71875 -47 C 15.71875 -47.789062 16.0625 -49.125 16.75 -51 C 17.144531 -51.90625 17.367188 -53.066406 17.421875 -54.484375 C 17.484375 -54.878906 17.425781 -55.332031 17.25 -55.84375 C 17.082031 -55.613281 16.769531 -55.359375 16.3125 -55.078125 C 16.03125 -54.910156 15.75 -54.6875 15.46875 -54.40625 L 14.1875 -53.46875 C 13.0625 -52.726562 12.300781 -51.789062 11.90625 -50.65625 C 11.675781 -50.09375 11.476562 -49.726562 11.3125 -49.5625 C 11.25 -49.5 11.21875 -49.410156 11.21875 -49.296875 L 11.046875 -48.1875 L 10.875 -47.09375 L 10.796875 -46.15625 C 10.796875 -45.363281 10.992188 -44.484375 11.390625 -43.515625 C 11.785156 -42.554688 12.492188 -41.195312 13.515625 -39.4375 L 14.625 -37.734375 C 15.925781 -35.753906 16.972656 -34.082031 17.765625 -32.71875 C 18.554688 -31.363281 19.289062 -29.921875 19.96875 -28.390625 C 20.144531 -28.109375 20.398438 -28.050781 20.734375 -28.21875 C 22.148438 -28.78125 23.566406 -29.207031 24.984375 -29.5 C 25.953125 -29.664062 26.460938 -29.320312 26.515625 -28.46875 C 26.578125 -28.132812 26.46875 -27.851562 26.1875 -27.625 L 24.5625 -27.03125 C 23.71875 -26.75 22.726562 -26.351562 21.59375 -25.84375 C 21.3125 -25.726562 21.222656 -25.53125 21.328125 -25.25 C 21.953125 -23.207031 22.351562 -21.445312 22.53125 -19.96875 C 22.582031 -19.40625 22.523438 -18.5 22.359375 -17.25 C 22.128906 -15.945312 22.015625 -15.039062 22.015625 -14.53125 C 22.015625 -14.019531 21.617188 -12.632812 20.828125 -10.375 C 20.429688 -9.351562 19.863281 -8.078125 19.125 -6.546875 C 19.007812 -6.203125 18.78125 -5.75 18.4375 -5.1875 L 17.515625 -3.484375 C 17.222656 -2.921875 16.710938 -2.128906 15.984375 -1.109375 C 15.921875 -0.929688 15.550781 -0.546875 14.875 0.046875 C 14.195312 0.640625 13.71875 1.050781 13.4375 1.28125 C 13.09375 1.445312 12.804688 1.53125 12.578125 1.53125 L 12.40625 1.53125 C 12.351562 1.53125 12.269531 1.585938 12.15625 1.703125 C 11.875 1.867188 11.476562 2.007812 10.96875 2.125 Z M 5.859375 -2.375 C 6.203125 -2.207031 6.546875 -2.238281 6.890625 -2.46875 C 7.109375 -2.695312 7.390625 -2.753906 7.734375 -2.640625 C 8.191406 -2.460938 8.53125 -2.570312 8.75 -2.96875 C 9.882812 -4.5 10.625 -5.972656 10.96875 -7.390625 C 11.695312 -10.503906 12.035156 -13.453125 11.984375 -16.234375 C 11.867188 -17.421875 11.726562 -18.242188 11.5625 -18.703125 L 11.046875 -18.28125 C 9.804688 -17.03125 8.363281 -15.070312 6.71875 -12.40625 C 6.320312 -11.78125 5.867188 -10.929688 5.359375 -9.859375 C 5.296875 -9.804688 5.207031 -9.550781 5.09375 -9.09375 L 4.84375 -8.421875 C 4.28125 -7.222656 4 -6.085938 4 -5.015625 C 4 -3.828125 4.617188 -2.945312 5.859375 -2.375 Z M 5.859375 -2.375 "/></g></g></g><g fill="#2f4673" fill-opacity="1"><g transform="translate(324.325499, 213.464675)"><g><path d="M 20.90625 -5.015625 C 19.601562 -5.015625 18.484375 -5.625 17.546875 -6.84375 C 16.617188 -8.0625 16.066406 -9.601562 15.890625 -11.46875 C 15.671875 -13.28125 15.5625 -15.632812 15.5625 -18.53125 L 15.5625 -23.125 C 15.613281 -23.6875 15.640625 -24.335938 15.640625 -25.078125 L 15.890625 -30.6875 C 15.953125 -31.082031 15.953125 -31.363281 15.890625 -31.53125 C 15.835938 -31.59375 15.726562 -31.535156 15.5625 -31.359375 C 15.5625 -31.359375 15.191406 -30.992188 14.453125 -30.265625 C 13.546875 -29.066406 12.75 -27.617188 12.0625 -25.921875 C 11.613281 -24.960938 11.363281 -24.140625 11.3125 -23.453125 C 11.3125 -23.347656 11.054688 -22.382812 10.546875 -20.5625 C 10.203125 -19.320312 10.03125 -18.445312 10.03125 -17.9375 C 9.289062 -12.894531 8.976562 -10.6875 9.09375 -11.3125 C 8.976562 -10.175781 8.921875 -9.351562 8.921875 -8.84375 C 8.921875 -8.664062 8.953125 -8.550781 9.015625 -8.5 L 9.1875 -8.15625 C 9.1875 -8.269531 9.070312 -8.210938 8.84375 -7.984375 C 8.445312 -7.648438 8.25 -7.394531 8.25 -7.21875 C 8.25 -7.21875 8.191406 -7.164062 8.078125 -7.0625 C 7.796875 -6.945312 7.738281 -6.742188 7.90625 -6.453125 C 7.957031 -6.453125 7.984375 -6.425781 7.984375 -6.375 C 7.929688 -6.320312 7.820312 -6.320312 7.65625 -6.375 C 7.539062 -6.375 7.484375 -6.347656 7.484375 -6.296875 C 7.484375 -5.953125 7.34375 -5.722656 7.0625 -5.609375 C 7 -5.609375 6.851562 -5.492188 6.625 -5.265625 C 6.507812 -5.148438 6.398438 -5.09375 6.296875 -5.09375 C 5.890625 -4.988281 5.578125 -5.101562 5.359375 -5.4375 C 4.671875 -6.34375 4.1875 -7.390625 3.90625 -8.578125 C 3.625 -9.773438 3.3125 -11.757812 2.96875 -14.53125 L 2.296875 -19.890625 C 2.296875 -20.515625 2.265625 -21.023438 2.203125 -21.421875 L 2.203125 -22.859375 L 2.046875 -25.921875 L 1.53125 -34.6875 C 1.25 -40.632812 1.132812 -45.191406 1.1875 -48.359375 C 1.351562 -50.578125 1.4375 -52.109375 1.4375 -52.953125 C 1.5 -53.296875 1.472656 -55.082031 1.359375 -58.3125 C 1.359375 -59.5625 1.300781 -60.453125 1.1875 -60.984375 C 1.070312 -61.523438 0.847656 -62.390625 0.515625 -63.578125 C 0.453125 -63.640625 0.363281 -63.925781 0.25 -64.4375 L 0 -65.453125 C -0.0507812 -65.679688 0.144531 -65.796875 0.59375 -65.796875 C 1.664062 -65.679688 2.441406 -65.523438 2.921875 -65.328125 C 3.410156 -65.128906 3.96875 -64.773438 4.59375 -64.265625 C 5.039062 -63.804688 5.460938 -63.238281 5.859375 -62.5625 C 6.316406 -61.882812 6.660156 -61.34375 6.890625 -60.9375 C 6.941406 -60.832031 7.140625 -60.410156 7.484375 -59.671875 C 8.109375 -58.484375 8.617188 -56.613281 9.015625 -54.0625 C 9.179688 -53.4375 9.304688 -52.457031 9.390625 -51.125 C 9.472656 -49.789062 9.515625 -48.613281 9.515625 -47.59375 C 9.515625 -46.519531 9.546875 -45.613281 9.609375 -44.875 L 9.609375 -41.5625 C 9.660156 -41.394531 9.6875 -41.054688 9.6875 -40.546875 C 9.6875 -39.921875 9.660156 -39.382812 9.609375 -38.9375 L 9.609375 -35.609375 C 9.609375 -34.304688 9.578125 -33.597656 9.515625 -33.484375 C 9.460938 -33.316406 9.4375 -33.035156 9.4375 -32.640625 C 9.4375 -31.960938 9.378906 -31.335938 9.265625 -30.765625 L 9.09375 -29.828125 L 8.84375 -28.8125 C 8.894531 -28.875 8.921875 -28.617188 8.921875 -28.046875 C 8.921875 -27.421875 8.894531 -26.910156 8.84375 -26.515625 L 8.671875 -24.90625 L 8.671875 -24.0625 L 8.75 -24.0625 C 9.257812 -25.414062 9.546875 -26.125 9.609375 -26.1875 C 10.335938 -28.101562 11.140625 -29.6875 12.015625 -30.9375 C 12.898438 -32.1875 14.023438 -33.148438 15.390625 -33.828125 L 15.71875 -34.078125 C 15.78125 -34.253906 16.09375 -34.398438 16.65625 -34.515625 C 17.28125 -34.679688 18.019531 -34.90625 18.875 -35.1875 C 18.8125 -35.132812 19.375 -35.191406 20.5625 -35.359375 L 21 -35.1875 C 21.675781 -34.675781 22.296875 -34 22.859375 -33.15625 L 23.203125 -32.8125 C 23.941406 -32.019531 24.367188 -30.828125 24.484375 -29.234375 C 24.535156 -29.066406 24.5625 -28.84375 24.5625 -28.5625 C 24.5625 -28.28125 24.535156 -28.082031 24.484375 -27.96875 C 24.421875 -27.738281 24.390625 -27.226562 24.390625 -26.4375 C 24.273438 -25.1875 24.078125 -23.769531 23.796875 -22.1875 L 23.546875 -20.65625 C 23.429688 -19.519531 23.375 -19.007812 23.375 -19.125 L 23.296875 -17 L 23.203125 -16.65625 L 22.6875 -13.9375 C 22.6875 -13.9375 22.632812 -13.3125 22.53125 -12.0625 C 22.53125 -11.664062 22.554688 -11.328125 22.609375 -11.046875 C 22.660156 -10.816406 22.6875 -10.5625 22.6875 -10.28125 L 22.6875 -10.109375 C 22.800781 -9.660156 22.914062 -9.296875 23.03125 -9.015625 C 24.394531 -9.410156 28.023438 -16.066406 33.921875 -28.984375 L 35.875 -33.234375 C 36.207031 -33.796875 36.570312 -34.078125 36.96875 -34.078125 C 37.539062 -34.078125 37.828125 -33.769531 37.828125 -33.15625 L 37.734375 -32.71875 C 37.335938 -30.90625 36.117188 -27.742188 34.078125 -23.234375 C 32.046875 -18.734375 29.851562 -14.640625 27.5 -10.953125 C 25.144531 -7.273438 23.203125 -5.320312 21.671875 -5.09375 C 21.503906 -5.039062 21.25 -5.015625 20.90625 -5.015625 Z M 20.90625 -5.015625 "/></g></g></g><g fill="#2f4673" fill-opacity="1"><g transform="translate(357.813999, 213.464675)"><g><path d="M 10.96875 -5.4375 C 9.269531 -5.4375 7.640625 -5.957031 6.078125 -7 C 4.515625 -8.050781 3.195312 -9.34375 2.125 -10.875 C 0.757812 -12.914062 -0.03125 -14.757812 -0.25 -16.40625 L -0.515625 -18.28125 C -0.847656 -20.3125 -1.015625 -21.726562 -1.015625 -22.53125 C -1.015625 -22.8125 -0.957031 -23.570312 -0.84375 -24.8125 C -0.164062 -29.976562 1.472656 -34.203125 4.078125 -37.484375 C 4.753906 -38.453125 5.691406 -39.441406 6.890625 -40.453125 L 8.671875 -41.65625 C 10.316406 -42.675781 12.046875 -43.1875 13.859375 -43.1875 C 15.273438 -43.1875 16.519531 -42.929688 17.59375 -42.421875 L 18.015625 -42.078125 C 18.410156 -41.898438 18.609375 -41.613281 18.609375 -41.21875 C 18.609375 -40.65625 18.328125 -40.289062 17.765625 -40.125 C 17.421875 -40.0625 17.191406 -39.972656 17.078125 -39.859375 C 17.191406 -39.742188 17.363281 -39.6875 17.59375 -39.6875 L 18.953125 -39.953125 C 19.460938 -39.953125 19.890625 -40.007812 20.234375 -40.125 C 20.347656 -40.175781 20.570312 -40.144531 20.90625 -40.03125 C 22.78125 -39.238281 24.082031 -37.226562 24.8125 -34 C 25.101562 -32.976562 25.273438 -32.441406 25.328125 -32.390625 C 25.953125 -31.992188 27.144531 -31.796875 28.90625 -31.796875 C 30.144531 -31.796875 31.441406 -31.894531 32.796875 -32.09375 C 34.160156 -32.289062 35.070312 -32.5 35.53125 -32.71875 C 35.757812 -32.894531 35.984375 -32.984375 36.203125 -32.984375 C 36.609375 -32.984375 36.8125 -32.726562 36.8125 -32.21875 C 36.8125 -31.875 36.679688 -31.503906 36.421875 -31.109375 C 36.171875 -30.710938 35.875 -30.488281 35.53125 -30.4375 C 32.75 -29.863281 30.425781 -29.578125 28.5625 -29.578125 C 27.707031 -29.578125 27.007812 -29.601562 26.46875 -29.65625 C 25.9375 -29.71875 25.726562 -29.773438 25.84375 -29.828125 C 25.445312 -29.660156 25.25 -29.265625 25.25 -28.640625 C 25.25 -28.421875 25.304688 -28.195312 25.421875 -27.96875 C 25.472656 -27.90625 25.5 -27.816406 25.5 -27.703125 C 25.332031 -26.066406 25.191406 -24.960938 25.078125 -24.390625 L 24.90625 -22.953125 C 24.5625 -21.472656 24.421875 -20.878906 24.484375 -21.171875 C 23.972656 -19.523438 23.347656 -17.820312 22.609375 -16.0625 L 21.765625 -14.359375 C 20.859375 -12.429688 20.21875 -11.195312 19.84375 -10.65625 C 19.476562 -10.125 18.785156 -9.378906 17.765625 -8.421875 C 17.421875 -8.078125 16.96875 -7.707031 16.40625 -7.3125 C 15.332031 -6.570312 14.425781 -6.085938 13.6875 -5.859375 C 12.894531 -5.578125 11.988281 -5.4375 10.96875 -5.4375 Z M 14.53125 -11.046875 C 15.039062 -11.046875 15.410156 -11.101562 15.640625 -11.21875 C 16.203125 -11.5 16.679688 -11.925781 17.078125 -12.5 C 18.390625 -14.3125 19.328125 -16.25 19.890625 -18.3125 C 20.453125 -20.382812 20.820312 -23.007812 21 -26.1875 C 21.050781 -26.6875 21.078125 -27.535156 21.078125 -28.734375 L 21.078125 -31.03125 C 20.960938 -31.132812 20.738281 -31.1875 20.40625 -31.1875 C 18.925781 -31.363281 17.644531 -31.988281 16.5625 -33.0625 C 15.488281 -34.144531 14.867188 -35.394531 14.703125 -36.8125 C 14.585938 -37.9375 14.785156 -38.785156 15.296875 -39.359375 C 14.054688 -39.078125 13.035156 -38.453125 12.234375 -37.484375 L 10.625 -35.703125 C 9.769531 -34.617188 9.289062 -33.992188 9.1875 -33.828125 L 8.75 -32.984375 C 8.414062 -32.359375 8.132812 -31.578125 7.90625 -30.640625 C 7.675781 -29.703125 7.394531 -27.988281 7.0625 -25.5 C 7 -25.101562 6.96875 -24.59375 6.96875 -23.96875 C 6.96875 -22.945312 7.082031 -21.957031 7.3125 -21 L 7.65625 -19.203125 C 7.707031 -18.753906 7.90625 -18.019531 8.25 -17 C 8.925781 -15.070312 9.972656 -13.457031 11.390625 -12.15625 C 11.953125 -11.695312 12.519531 -11.382812 13.09375 -11.21875 C 13.769531 -11.101562 14.25 -11.046875 14.53125 -11.046875 Z M 20.40625 -33.0625 C 20.800781 -33.0625 21 -33.429688 21 -34.171875 C 21 -34.734375 20.941406 -35.210938 20.828125 -35.609375 C 20.648438 -36.628906 20.28125 -37.394531 19.71875 -37.90625 C 19.488281 -38.132812 19.160156 -38.347656 18.734375 -38.546875 C 18.316406 -38.742188 17.910156 -38.84375 17.515625 -38.84375 C 17.222656 -38.84375 17.023438 -38.816406 16.921875 -38.765625 C 16.578125 -38.703125 16.40625 -38.445312 16.40625 -38 C 16.40625 -37.539062 16.5625 -37.015625 16.875 -36.421875 C 17.1875 -35.828125 17.539062 -35.300781 17.9375 -34.84375 C 19.007812 -33.65625 19.832031 -33.0625 20.40625 -33.0625 Z M 20.40625 -33.0625 "/></g></g></g><g fill="#2f4673" fill-opacity="1"><g transform="translate(391.472467, 213.464675)"><g><path d="M 9.34375 21.328125 L 8.84375 21.421875 C 8.5 21.421875 8.171875 21.289062 7.859375 21.03125 C 7.546875 20.78125 7.304688 20.515625 7.140625 20.234375 C 6.234375 18.472656 5.59375 17.082031 5.21875 16.0625 C 4.851562 15.039062 4.472656 13.679688 4.078125 11.984375 C 3.453125 9.097656 3.054688 6.492188 2.890625 4.171875 C 2.378906 0.597656 2.097656 -2.09375 2.046875 -3.90625 C 2.046875 -5.269531 1.957031 -6.742188 1.78125 -8.328125 C 1.78125 -9.515625 1.738281 -11.03125 1.65625 -12.875 C 1.570312 -14.71875 1.5 -16.234375 1.4375 -17.421875 L 1.4375 -20.0625 L 1.28125 -26.9375 L 1.28125 -31.796875 C 1.28125 -32.523438 1.191406 -33.003906 1.015625 -33.234375 L 0.9375 -33.3125 L 1.53125 -34.421875 L 1.78125 -34.765625 L 2.203125 -35.109375 C 2.773438 -35.390625 3.285156 -35.53125 3.734375 -35.53125 C 4.535156 -35.53125 5.300781 -35.25 6.03125 -34.6875 L 6.546875 -34.421875 C 6.941406 -34.367188 7.421875 -34.171875 7.984375 -33.828125 C 8.097656 -33.828125 8.15625 -33.800781 8.15625 -33.75 C 8.726562 -33.6875 9.238281 -33.316406 9.6875 -32.640625 C 9.800781 -32.523438 9.984375 -32.253906 10.234375 -31.828125 C 10.492188 -31.398438 10.707031 -30.878906 10.875 -30.265625 C 11.164062 -29.015625 11.3125 -28.363281 11.3125 -28.3125 C 11.414062 -27.570312 11.46875 -27.203125 11.46875 -27.203125 L 11.46875 -26.9375 L 11.5625 -24.484375 L 11.640625 -24.140625 L 11.640625 -23.71875 L 11.734375 -21.671875 C 11.847656 -20.367188 11.707031 -18.671875 11.3125 -16.578125 C 11.25 -16.296875 11.1875 -15.96875 11.125 -15.59375 C 11.070312 -15.226562 11.015625 -14.945312 10.953125 -14.75 C 10.898438 -14.550781 10.789062 -14.363281 10.625 -14.1875 C 10.507812 -14.082031 10.484375 -13.941406 10.546875 -13.765625 L 10.453125 -12.75 L 10.375 -11.984375 C 10.425781 -11.984375 10.453125 -12.007812 10.453125 -12.0625 L 10.28125 -11.734375 L 10.03125 -11.390625 L 9.9375 -10.546875 L 9.9375 -10.375 C 9.9375 -10.144531 9.910156 -9.945312 9.859375 -9.78125 C 9.804688 -9.71875 9.78125 -9.519531 9.78125 -9.1875 C 9.78125 -8.675781 9.691406 -8.078125 9.515625 -7.390625 C 9.460938 -7.222656 9.4375 -7 9.4375 -6.71875 C 9.4375 -6.4375 9.460938 -6.207031 9.515625 -6.03125 L 9.609375 -5.609375 L 9.515625 -5.609375 C 9.296875 -6.003906 9.238281 -6.144531 9.34375 -6.03125 C 9.175781 -5.800781 9.09375 -5.460938 9.09375 -5.015625 L 8.921875 -3.5625 L 8.921875 -2.890625 L 8.84375 -2.203125 L 8.921875 -1.609375 L 8.921875 1.609375 L 9.015625 4.078125 L 9.09375 6.453125 L 9.09375 8.671875 C 9.09375 8.722656 9.148438 8.75 9.265625 8.75 L 9.515625 6.890625 L 10.28125 2.296875 C 10.738281 -0.878906 11.164062 -3.144531 11.5625 -4.5 C 11.675781 -5.070312 11.84375 -5.867188 12.0625 -6.890625 C 12.289062 -7.910156 12.585938 -9.097656 12.953125 -10.453125 C 13.328125 -11.816406 13.851562 -13.40625 14.53125 -15.21875 L 15.71875 -18.4375 C 16.007812 -19.289062 16.648438 -20.691406 17.640625 -22.640625 C 18.628906 -24.597656 19.378906 -26.03125 19.890625 -26.9375 C 21.472656 -29.488281 22.890625 -31.304688 24.140625 -32.390625 C 24.253906 -32.503906 24.3125 -32.5625 24.3125 -32.5625 C 24.363281 -32.726562 24.546875 -32.953125 24.859375 -33.234375 C 25.171875 -33.515625 25.410156 -33.65625 25.578125 -33.65625 C 25.753906 -33.65625 26.039062 -33.710938 26.4375 -33.828125 C 26.832031 -33.941406 27.085938 -34.023438 27.203125 -34.078125 C 28.109375 -34.191406 28.675781 -34.25 28.90625 -34.25 C 29.300781 -34.25 29.664062 -34.191406 30 -34.078125 C 30.6875 -33.910156 31.253906 -33.6875 31.703125 -33.40625 C 32.160156 -33.125 32.613281 -32.671875 33.0625 -32.046875 C 33.800781 -31.023438 34.113281 -29.804688 34 -28.390625 C 33.769531 -27.253906 33.65625 -26.40625 33.65625 -25.84375 C 34 -26.007812 35.300781 -27.054688 37.5625 -28.984375 C 39.832031 -30.910156 41.363281 -32.242188 42.15625 -32.984375 C 42.5 -33.265625 42.8125 -33.316406 43.09375 -33.140625 C 43.375 -32.972656 43.515625 -32.722656 43.515625 -32.390625 C 43.515625 -32.210938 43.429688 -32.039062 43.265625 -31.875 C 42.703125 -31.25 40.632812 -29.40625 37.0625 -26.34375 C 33.832031 -23.570312 32.101562 -22.015625 31.875 -21.671875 C 31.988281 -21.847656 31.832031 -21.476562 31.40625 -20.5625 C 30.976562 -19.65625 30.679688 -19.003906 30.515625 -18.609375 C 30.742188 -18.835938 30.40625 -18.019531 29.5 -16.15625 L 29.40625 -16.0625 L 29.5 -16.484375 C 29.5 -16.546875 29.453125 -16.585938 29.359375 -16.609375 C 29.273438 -16.640625 29.207031 -16.628906 29.15625 -16.578125 L 28.90625 -15.890625 C 28.84375 -15.722656 28.753906 -15.664062 28.640625 -15.71875 C 28.523438 -15.78125 28.46875 -15.835938 28.46875 -15.890625 L 28.3125 -15.890625 C 28.132812 -15.554688 27.988281 -15.332031 27.875 -15.21875 C 27.757812 -15.101562 27.617188 -14.875 27.453125 -14.53125 L 27.375 -14.359375 C 27.082031 -14.078125 26.96875 -13.878906 27.03125 -13.765625 L 26.78125 -13.4375 L 26.1875 -12.5 C 26.125 -12.5 26.09375 -12.46875 26.09375 -12.40625 C 25.925781 -11.957031 25.613281 -11.304688 25.15625 -10.453125 L 24.90625 -9.859375 C 24.90625 -9.859375 24.863281 -9.785156 24.78125 -9.640625 C 24.695312 -9.503906 24.566406 -9.296875 24.390625 -9.015625 C 24.273438 -8.898438 24.21875 -8.84375 24.21875 -8.84375 C 24 -8.84375 23.660156 -8.585938 23.203125 -8.078125 C 23.148438 -7.960938 23.007812 -7.847656 22.78125 -7.734375 L 22.4375 -7.5625 C 21.988281 -6.882812 21.617188 -6.40625 21.328125 -6.125 L 21 -5.953125 C 20.707031 -5.773438 20.5625 -5.632812 20.5625 -5.53125 C 20.34375 -5.300781 20.203125 -5.1875 20.140625 -5.1875 C 20.023438 -5.070312 19.96875 -5.039062 19.96875 -5.09375 C 19.914062 -5.15625 19.832031 -5.1875 19.71875 -5.1875 L 19.546875 -5.1875 C 19.546875 -5.1875 19.234375 -5.242188 18.609375 -5.359375 C 18.554688 -5.359375 18.472656 -5.414062 18.359375 -5.53125 C 18.191406 -5.8125 17.851562 -6.09375 17.34375 -6.375 C 16.832031 -6.488281 16.578125 -6.828125 16.578125 -7.390625 C 16.515625 -9.148438 17.109375 -10.992188 18.359375 -12.921875 L 19.890625 -14.953125 C 20.117188 -15.179688 20.257812 -15.410156 20.3125 -15.640625 L 21.25 -18.28125 C 22.15625 -20.71875 22.976562 -23.660156 23.71875 -27.109375 C 23.769531 -27.398438 23.796875 -27.710938 23.796875 -28.046875 C 23.910156 -28.222656 23.910156 -28.648438 23.796875 -29.328125 C 23.742188 -29.492188 23.660156 -29.519531 23.546875 -29.40625 C 22.972656 -28.726562 22.6875 -28.390625 22.6875 -28.390625 C 21.675781 -27.085938 20.769531 -25.695312 19.96875 -24.21875 L 18.78125 -22.1875 C 18.050781 -21.101562 17.457031 -19.800781 17 -18.28125 L 15.46875 -13.6875 C 14.90625 -12.15625 14.535156 -10.878906 14.359375 -9.859375 L 13.765625 -7.5625 C 13.085938 -5.351562 12.632812 -3.3125 12.40625 -1.4375 C 12.007812 0.9375 11.726562 2.460938 11.5625 3.140625 L 11.3125 4.765625 C 11.195312 5.890625 10.882812 7.84375 10.375 10.625 C 10.03125 12.78125 9.859375 14.113281 9.859375 14.625 C 9.859375 15.25 9.914062 15.703125 10.03125 15.984375 C 10.03125 16.097656 10.054688 16.179688 10.109375 16.234375 L 10.109375 16.578125 C 10.222656 16.910156 10.3125 17.109375 10.375 17.171875 C 10.539062 17.335938 10.566406 17.507812 10.453125 17.6875 C 10.335938 17.789062 10.335938 17.898438 10.453125 18.015625 C 10.453125 18.191406 10.425781 18.304688 10.375 18.359375 C 10.257812 18.703125 10.203125 19.070312 10.203125 19.46875 C 10.203125 19.863281 10.144531 20.226562 10.03125 20.5625 L 10.109375 20.90625 C 10.171875 21.132812 10.085938 21.25 9.859375 21.25 Z M 9.34375 21.328125 "/></g></g></g><g fill="#2f4673" fill-opacity="1"><g transform="translate(431.420675, 213.464675)"><g><path d="M 9.34375 21.328125 L 8.84375 21.421875 C 8.5 21.421875 8.171875 21.289062 7.859375 21.03125 C 7.546875 20.78125 7.304688 20.515625 7.140625 20.234375 C 6.234375 18.472656 5.59375 17.082031 5.21875 16.0625 C 4.851562 15.039062 4.472656 13.679688 4.078125 11.984375 C 3.453125 9.097656 3.054688 6.492188 2.890625 4.171875 C 2.378906 0.597656 2.097656 -2.09375 2.046875 -3.90625 C 2.046875 -5.269531 1.957031 -6.742188 1.78125 -8.328125 C 1.78125 -9.515625 1.738281 -11.03125 1.65625 -12.875 C 1.570312 -14.71875 1.5 -16.234375 1.4375 -17.421875 L 1.4375 -20.0625 L 1.28125 -26.9375 L 1.28125 -31.796875 C 1.28125 -32.523438 1.191406 -33.003906 1.015625 -33.234375 L 0.9375 -33.3125 L 1.53125 -34.421875 L 1.78125 -34.765625 L 2.203125 -35.109375 C 2.773438 -35.390625 3.285156 -35.53125 3.734375 -35.53125 C 4.535156 -35.53125 5.300781 -35.25 6.03125 -34.6875 L 6.546875 -34.421875 C 6.941406 -34.367188 7.421875 -34.171875 7.984375 -33.828125 C 8.097656 -33.828125 8.15625 -33.800781 8.15625 -33.75 C 8.726562 -33.6875 9.238281 -33.316406 9.6875 -32.640625 C 9.800781 -32.523438 9.984375 -32.253906 10.234375 -31.828125 C 10.492188 -31.398438 10.707031 -30.878906 10.875 -30.265625 C 11.164062 -29.015625 11.3125 -28.363281 11.3125 -28.3125 C 11.414062 -27.570312 11.46875 -27.203125 11.46875 -27.203125 L 11.46875 -26.9375 L 11.5625 -24.484375 L 11.640625 -24.140625 L 11.640625 -23.71875 L 11.734375 -21.671875 C 11.847656 -20.367188 11.707031 -18.671875 11.3125 -16.578125 C 11.25 -16.296875 11.1875 -15.96875 11.125 -15.59375 C 11.070312 -15.226562 11.015625 -14.945312 10.953125 -14.75 C 10.898438 -14.550781 10.789062 -14.363281 10.625 -14.1875 C 10.507812 -14.082031 10.484375 -13.941406 10.546875 -13.765625 L 10.453125 -12.75 L 10.375 -11.984375 C 10.425781 -11.984375 10.453125 -12.007812 10.453125 -12.0625 L 10.28125 -11.734375 L 10.03125 -11.390625 L 9.9375 -10.546875 L 9.9375 -10.375 C 9.9375 -10.144531 9.910156 -9.945312 9.859375 -9.78125 C 9.804688 -9.71875 9.78125 -9.519531 9.78125 -9.1875 C 9.78125 -8.675781 9.691406 -8.078125 9.515625 -7.390625 C 9.460938 -7.222656 9.4375 -7 9.4375 -6.71875 C 9.4375 -6.4375 9.460938 -6.207031 9.515625 -6.03125 L 9.609375 -5.609375 L 9.515625 -5.609375 C 9.296875 -6.003906 9.238281 -6.144531 9.34375 -6.03125 C 9.175781 -5.800781 9.09375 -5.460938 9.09375 -5.015625 L 8.921875 -3.5625 L 8.921875 -2.890625 L 8.84375 -2.203125 L 8.921875 -1.609375 L 8.921875 1.609375 L 9.015625 4.078125 L 9.09375 6.453125 L 9.09375 8.671875 C 9.09375 8.722656 9.148438 8.75 9.265625 8.75 L 9.515625 6.890625 L 10.28125 2.296875 C 10.738281 -0.878906 11.164062 -3.144531 11.5625 -4.5 C 11.675781 -5.070312 11.84375 -5.867188 12.0625 -6.890625 C 12.289062 -7.910156 12.585938 -9.097656 12.953125 -10.453125 C 13.328125 -11.816406 13.851562 -13.40625 14.53125 -15.21875 L 15.71875 -18.4375 C 16.007812 -19.289062 16.648438 -20.691406 17.640625 -22.640625 C 18.628906 -24.597656 19.378906 -26.03125 19.890625 -26.9375 C 21.472656 -29.488281 22.890625 -31.304688 24.140625 -32.390625 C 24.253906 -32.503906 24.3125 -32.5625 24.3125 -32.5625 C 24.363281 -32.726562 24.546875 -32.953125 24.859375 -33.234375 C 25.171875 -33.515625 25.410156 -33.65625 25.578125 -33.65625 C 25.753906 -33.65625 26.039062 -33.710938 26.4375 -33.828125 C 26.832031 -33.941406 27.085938 -34.023438 27.203125 -34.078125 C 28.109375 -34.191406 28.675781 -34.25 28.90625 -34.25 C 29.300781 -34.25 29.664062 -34.191406 30 -34.078125 C 30.6875 -33.910156 31.253906 -33.6875 31.703125 -33.40625 C 32.160156 -33.125 32.613281 -32.671875 33.0625 -32.046875 C 33.800781 -31.023438 34.113281 -29.804688 34 -28.390625 C 33.769531 -27.253906 33.65625 -26.40625 33.65625 -25.84375 C 34 -26.007812 35.300781 -27.054688 37.5625 -28.984375 C 39.832031 -30.910156 41.363281 -32.242188 42.15625 -32.984375 C 42.5 -33.265625 42.8125 -33.316406 43.09375 -33.140625 C 43.375 -32.972656 43.515625 -32.722656 43.515625 -32.390625 C 43.515625 -32.210938 43.429688 -32.039062 43.265625 -31.875 C 42.703125 -31.25 40.632812 -29.40625 37.0625 -26.34375 C 33.832031 -23.570312 32.101562 -22.015625 31.875 -21.671875 C 31.988281 -21.847656 31.832031 -21.476562 31.40625 -20.5625 C 30.976562 -19.65625 30.679688 -19.003906 30.515625 -18.609375 C 30.742188 -18.835938 30.40625 -18.019531 29.5 -16.15625 L 29.40625 -16.0625 L 29.5 -16.484375 C 29.5 -16.546875 29.453125 -16.585938 29.359375 -16.609375 C 29.273438 -16.640625 29.207031 -16.628906 29.15625 -16.578125 L 28.90625 -15.890625 C 28.84375 -15.722656 28.753906 -15.664062 28.640625 -15.71875 C 28.523438 -15.78125 28.46875 -15.835938 28.46875 -15.890625 L 28.3125 -15.890625 C 28.132812 -15.554688 27.988281 -15.332031 27.875 -15.21875 C 27.757812 -15.101562 27.617188 -14.875 27.453125 -14.53125 L 27.375 -14.359375 C 27.082031 -14.078125 26.96875 -13.878906 27.03125 -13.765625 L 26.78125 -13.4375 L 26.1875 -12.5 C 26.125 -12.5 26.09375 -12.46875 26.09375 -12.40625 C 25.925781 -11.957031 25.613281 -11.304688 25.15625 -10.453125 L 24.90625 -9.859375 C 24.90625 -9.859375 24.863281 -9.785156 24.78125 -9.640625 C 24.695312 -9.503906 24.566406 -9.296875 24.390625 -9.015625 C 24.273438 -8.898438 24.21875 -8.84375 24.21875 -8.84375 C 24 -8.84375 23.660156 -8.585938 23.203125 -8.078125 C 23.148438 -7.960938 23.007812 -7.847656 22.78125 -7.734375 L 22.4375 -7.5625 C 21.988281 -6.882812 21.617188 -6.40625 21.328125 -6.125 L 21 -5.953125 C 20.707031 -5.773438 20.5625 -5.632812 20.5625 -5.53125 C 20.34375 -5.300781 20.203125 -5.1875 20.140625 -5.1875 C 20.023438 -5.070312 19.96875 -5.039062 19.96875 -5.09375 C 19.914062 -5.15625 19.832031 -5.1875 19.71875 -5.1875 L 19.546875 -5.1875 C 19.546875 -5.1875 19.234375 -5.242188 18.609375 -5.359375 C 18.554688 -5.359375 18.472656 -5.414062 18.359375 -5.53125 C 18.191406 -5.8125 17.851562 -6.09375 17.34375 -6.375 C 16.832031 -6.488281 16.578125 -6.828125 16.578125 -7.390625 C 16.515625 -9.148438 17.109375 -10.992188 18.359375 -12.921875 L 19.890625 -14.953125 C 20.117188 -15.179688 20.257812 -15.410156 20.3125 -15.640625 L 21.25 -18.28125 C 22.15625 -20.71875 22.976562 -23.660156 23.71875 -27.109375 C 23.769531 -27.398438 23.796875 -27.710938 23.796875 -28.046875 C 23.910156 -28.222656 23.910156 -28.648438 23.796875 -29.328125 C 23.742188 -29.492188 23.660156 -29.519531 23.546875 -29.40625 C 22.972656 -28.726562 22.6875 -28.390625 22.6875 -28.390625 C 21.675781 -27.085938 20.769531 -25.695312 19.96875 -24.21875 L 18.78125 -22.1875 C 18.050781 -21.101562 17.457031 -19.800781 17 -18.28125 L 15.46875 -13.6875 C 14.90625 -12.15625 14.535156 -10.878906 14.359375 -9.859375 L 13.765625 -7.5625 C 13.085938 -5.351562 12.632812 -3.3125 12.40625 -1.4375 C 12.007812 0.9375 11.726562 2.460938 11.5625 3.140625 L 11.3125 4.765625 C 11.195312 5.890625 10.882812 7.84375 10.375 10.625 C 10.03125 12.78125 9.859375 14.113281 9.859375 14.625 C 9.859375 15.25 9.914062 15.703125 10.03125 15.984375 C 10.03125 16.097656 10.054688 16.179688 10.109375 16.234375 L 10.109375 16.578125 C 10.222656 16.910156 10.3125 17.109375 10.375 17.171875 C 10.539062 17.335938 10.566406 17.507812 10.453125 17.6875 C 10.335938 17.789062 10.335938 17.898438 10.453125 18.015625 C 10.453125 18.191406 10.425781 18.304688 10.375 18.359375 C 10.257812 18.703125 10.203125 19.070312 10.203125 19.46875 C 10.203125 19.863281 10.144531 20.226562 10.03125 20.5625 L 10.109375 20.90625 C 10.171875 21.132812 10.085938 21.25 9.859375 21.25 Z M 9.34375 21.328125 "/></g></g></g><g fill="#2f4673" fill-opacity="1"><g transform="translate(471.368883, 213.464675)"><g><path d="M 10.625 1.78125 C 9.945312 1.78125 9.351562 1.695312 8.84375 1.53125 C 7.363281 0.851562 6.085938 -0.0234375 5.015625 -1.109375 C 3.085938 -2.972656 1.613281 -4.867188 0.59375 -6.796875 C -0.425781 -8.722656 -1.132812 -10.847656 -1.53125 -13.171875 C -1.757812 -14.359375 -1.898438 -16.457031 -1.953125 -19.46875 L -1.703125 -24.484375 C -1.078125 -27.367188 -0.59375 -29.25 -0.25 -30.125 C 0.0820312 -31.007812 0.59375 -31.765625 1.28125 -32.390625 C 1.332031 -32.390625 1.441406 -32.53125 1.609375 -32.8125 C 2.117188 -33.65625 2.800781 -34.25 3.65625 -34.59375 C 5.351562 -35.21875 7.109375 -35.53125 8.921875 -35.53125 C 9.660156 -35.53125 10.203125 -35.5 10.546875 -35.4375 C 11.222656 -35.382812 11.828125 -35.203125 12.359375 -34.890625 C 12.898438 -34.578125 13.226562 -34.164062 13.34375 -33.65625 C 13.34375 -33.375 13.515625 -33.234375 13.859375 -33.234375 C 14.421875 -33.179688 14.898438 -32.867188 15.296875 -32.296875 L 15.71875 -31.875 C 15.945312 -31.820312 16.117188 -31.453125 16.234375 -30.765625 C 16.285156 -30.484375 16.3125 -30.117188 16.3125 -29.671875 C 16.3125 -28.867188 16.203125 -28.242188 15.984375 -27.796875 C 15.921875 -27.734375 15.75 -26.941406 15.46875 -25.421875 L 14.453125 -22.09375 C 14.566406 -22.320312 14.523438 -22.265625 14.328125 -21.921875 C 14.128906 -21.585938 13.929688 -21.175781 13.734375 -20.6875 C 13.535156 -20.207031 13.347656 -19.710938 13.171875 -19.203125 L 12.671875 -17.6875 C 12.265625 -17.0625 11.679688 -16.007812 10.921875 -14.53125 C 10.160156 -13.0625 9.722656 -12.070312 9.609375 -11.5625 L 9.609375 -10.796875 C 9.609375 -9.378906 10.175781 -7.847656 11.3125 -6.203125 L 12.75 -4.078125 L 13.09375 -3.734375 C 13.320312 -3.515625 13.601562 -3.40625 13.9375 -3.40625 C 14.28125 -3.40625 14.566406 -3.546875 14.796875 -3.828125 C 16.890625 -6.085938 19.632812 -11.242188 23.03125 -19.296875 C 24.332031 -22.242188 25.46875 -24.992188 26.4375 -27.546875 C 27.175781 -29.359375 27.65625 -30.601562 27.875 -31.28125 C 27.988281 -31.507812 28.1875 -31.691406 28.46875 -31.828125 C 28.757812 -31.972656 29.046875 -32.046875 29.328125 -32.046875 C 29.722656 -32.046875 29.921875 -31.929688 29.921875 -31.703125 L 29.921875 -31.53125 C 26.742188 -19.6875 22.238281 -9.488281 16.40625 -0.9375 C 16.40625 -0.875 15.953125 -0.488281 15.046875 0.21875 C 14.140625 0.925781 13.257812 1.390625 12.40625 1.609375 C 12.175781 1.722656 11.582031 1.78125 10.625 1.78125 Z M 8.921875 -15.5625 L 9.09375 -15.640625 C 10.0625 -17.109375 10.753906 -18.394531 11.171875 -19.5 C 11.597656 -20.613281 12.007812 -22.1875 12.40625 -24.21875 C 12.6875 -25.75 12.828125 -27 12.828125 -27.96875 C 12.828125 -28.476562 12.773438 -29.128906 12.671875 -29.921875 L 12.40625 -30.9375 C 11.613281 -30.144531 11.046875 -29.378906 10.703125 -28.640625 C 9.347656 -25.410156 8.671875 -22.296875 8.671875 -19.296875 C 8.671875 -18.785156 8.726562 -18.132812 8.84375 -17.34375 Z M 8.921875 -15.5625 "/></g></g></g></svg>